<svg width="99" height="168" viewBox="0 0 99 168" fill="none" xmlns="http://www.w3.org/2000/svg">
<path fill-rule="evenodd" clip-rule="evenodd" d="M53.3148 14.7912C54.2277 15.4869 54.4037 16.7909 53.708 17.7037L32.8585 45.0605C32.1628 45.9733 32.3388 47.2773 33.2516 47.973L34.907 49.2346C35.8198 49.9303 37.1238 49.7543 37.8195 48.8414L58.1894 22.114C59.0468 20.989 60.7531 21.0307 61.5546 22.1961L65.8967 28.51C66.4056 29.2499 66.3816 30.2331 65.8372 30.9473L45.6562 57.4269L45.6562 57.427L45.6562 57.4271L36.3778 71.3166L36.3777 71.3166L36.3776 71.3166L18.8584 72.9906C18.6937 73.0064 18.5291 73.0023 18.3678 72.9793C3.49181 97.2453 -25.0146 142.434 -37.9974 132.539C-50.9748 122.649 -14.4863 83.5977 5.24397 63.0205C5.16899 62.8633 5.11354 62.6961 5.07982 62.5225L1.83894 45.8388C1.71726 45.2124 1.8901 44.5648 2.30773 44.0824L12.5786 32.2174L12.5786 32.2174L12.5787 32.2174L32.7598 5.73776C33.3041 5.02352 34.2457 4.73973 35.094 5.03419L42.3332 7.54681C43.6695 8.0106 44.162 9.64482 43.3046 10.7698L22.9347 37.4972C22.239 38.4101 22.415 39.7141 23.3279 40.4098L24.9837 41.6717C25.8965 42.3674 27.2005 42.1914 27.8962 41.2786L48.7458 13.9218C49.4415 13.009 50.7455 12.833 51.6583 13.5287L53.3148 14.7912Z" fill="url(#paint0_linear_394_4078)"/>
<path fill-rule="evenodd" clip-rule="evenodd" d="M38.4874 102.44C50.3021 102.511 63.7875 95.3869 73.4318 82.7326C86.884 65.0819 87.9814 43.0782 76.33 32.3423C75.4859 31.5646 74.173 31.7464 73.4773 32.6593L26.9488 93.7094C10.1856 110.503 -21.5542 145.071 -8.42922 155.074C4.70514 165.084 30.5662 125.952 38.4874 102.44Z" fill="url(#paint1_linear_394_4078)"/>
<defs>
<linearGradient id="paint0_linear_394_4078" x1="52.5098" y1="14.1776" x2="-37.8079" y2="132.684" gradientUnits="userSpaceOnUse">
<stop stop-color="#626360"/>
<stop offset="1" stop-color="#626360" stop-opacity="0"/>
</linearGradient>
<linearGradient id="paint1_linear_394_4078" x1="85.564" y1="39.3694" x2="-4.75367" y2="157.876" gradientUnits="userSpaceOnUse">
<stop stop-color="#626360"/>
<stop offset="1" stop-color="#626360" stop-opacity="0"/>
</linearGradient>
</defs>
</svg>
