<svg width="301" height="484" viewBox="0 0 301 484" fill="none" xmlns="http://www.w3.org/2000/svg">
<path fill-rule="evenodd" clip-rule="evenodd" d="M80.6825 158.387C65.0035 167.882 59.9902 188.288 69.485 203.967L204.283 426.556C209.03 434.395 219.234 436.902 227.074 432.155L424.271 312.746C428.19 310.373 429.444 305.271 427.07 301.351L275.08 50.3736C272.706 46.454 267.605 45.2006 263.685 47.5741L80.6825 158.387ZM205.228 372.9C196.988 377.89 194.353 388.616 199.343 396.856L206.965 409.443C211.956 417.683 222.681 420.318 230.922 415.328L424.944 297.842L399.251 255.414L205.228 372.9ZM216.778 384.231C215.888 382.761 216.358 380.848 217.828 379.958L405.758 266.161L408.982 271.483L221.052 385.281C219.582 386.171 217.669 385.701 216.778 384.231ZM228.566 397.688C227.096 398.578 226.626 400.491 227.516 401.961C228.406 403.431 230.319 403.901 231.789 403.011L419.719 289.214L416.496 283.891L228.566 397.688Z" fill="url(#paint0_linear_394_4209)"/>
<path fill-rule="evenodd" clip-rule="evenodd" d="M273.563 150.697C273.8 151.087 274.179 151.369 274.621 151.483L323.533 164.068C325.029 164.453 325.323 166.45 324.002 167.25L305.968 178.17C305.693 178.336 305.605 178.694 305.772 178.968L348.407 249.371C348.906 250.195 348.642 251.267 347.818 251.766L301.126 280.04C300.302 280.539 299.229 280.275 298.73 279.451L284.51 255.97C284.011 255.146 282.938 254.882 282.114 255.381L251.981 273.628C251.157 274.127 250.893 275.199 251.392 276.023L265.613 299.505C266.112 300.329 265.848 301.402 265.024 301.901L218.332 330.174C217.508 330.673 216.435 330.41 215.936 329.586L173.301 259.183C173.135 258.909 172.777 258.821 172.502 258.987L154.67 269.785C153.321 270.602 151.666 269.351 152.085 267.83L188.214 136.634C188.459 135.744 189.355 135.199 190.258 135.391L231.94 144.249L220.525 125.398C220.025 124.574 220.289 123.502 221.113 123.003L245.727 108.098C246.551 107.599 247.624 107.863 248.123 108.687L273.563 150.697ZM205.276 197.049C203.496 189.687 207.036 181.735 213.973 177.535C220.909 173.334 229.597 173.882 235.296 178.871C236.845 176.741 238.754 174.94 241.027 173.564C245.185 171.046 250.099 170.163 254.689 171.107C259.279 172.052 263.169 174.748 265.503 178.601C269.507 185.213 268.145 193.931 262.259 199.779L277.248 224.529L226.299 255.38L211.311 230.629C207.46 231.853 203.383 231.836 199.716 230.581C196.049 229.326 192.998 226.903 191.04 223.691C188.706 219.837 188.12 215.141 189.41 210.636C190.699 206.131 193.76 202.186 197.917 199.668C200.19 198.292 202.671 197.435 205.276 197.049ZM250.433 233.319L240.13 216.306L236.211 218.679L246.514 235.692L250.433 233.319ZM228.373 223.425L224.454 225.799L234.757 242.811L238.676 240.438L228.373 223.425ZM251.888 209.187L247.969 211.56L258.271 228.573L262.191 226.199L251.888 209.187ZM231.395 263.795L229.195 260.162L280.144 229.311L282.344 232.944C282.927 233.907 283.074 235.081 282.751 236.208C282.429 237.334 281.664 238.32 280.624 238.95L237.514 265.054C236.475 265.683 235.246 265.904 234.099 265.668C232.951 265.432 231.979 264.758 231.395 263.795Z" fill="#F5F6F2"/>
<defs>
<linearGradient id="paint0_linear_394_4209" x1="161.538" y1="109.427" x2="322.112" y2="374.607" gradientUnits="userSpaceOnUse">
<stop stop-color="#F7744C"/>
<stop offset="1" stop-color="#F7744C" stop-opacity="0.44"/>
</linearGradient>
</defs>
</svg>
