<svg width="154" height="160" viewBox="0 0 154 160" fill="none" xmlns="http://www.w3.org/2000/svg">
<path d="M67.21 31.5954C58.8222 25.7087 47.8231 25.6592 40.2135 31.4628C38.4417 28.646 36.1886 26.2126 33.4401 24.2836C28.4128 20.7554 22.2923 19.2226 16.4252 20.0224C10.558 20.8223 5.42479 23.8893 2.15469 28.5488C-0.564648 32.4474 -1.81503 37.2083 -1.40121 42.0883C-0.987404 46.9683 1.0673 51.6927 4.4421 55.5238L-16.5602 85.4493L45.045 128.685L66.0474 98.7596C75.8057 102.593 86.583 99.7332 92.1931 91.7396C95.4632 87.0801 96.6023 81.2099 95.3598 75.4203C94.1172 69.6307 90.5949 64.396 85.5676 60.8678C82.819 58.9388 79.7646 57.6473 76.5132 56.9387C79.3839 47.8092 75.5978 37.4821 67.21 31.5954ZM30.9333 78.2458L35.6722 81.5716L21.2355 102.142L16.4967 98.8161L30.9333 78.2458ZM16.7167 68.2683L21.4556 71.5941L7.01895 92.1644L2.28009 88.8386L16.7167 68.2683ZM45.1499 88.2233L49.8888 91.5491L35.4521 112.119L30.7133 108.794L45.1499 88.2233ZM-20.6184 91.2317L-23.7009 95.6238C-24.5184 96.7887 -24.8032 98.2562 -24.4926 99.7036C-24.182 101.151 -23.3014 102.46 -22.0445 103.342L30.083 139.926C31.3398 140.808 32.8699 141.191 34.3367 140.991C35.8035 140.791 37.0868 140.024 37.9043 138.86L40.9868 134.468L-20.6184 91.2317Z" fill="url(#paint0_linear_653_1820)"/>
<path opacity="0.2" d="M108.21 37.5954C99.8222 31.7087 88.8231 31.6592 81.2135 37.4628C79.4417 34.646 77.1886 32.2126 74.4401 30.2836C69.4128 26.7554 63.2923 25.2226 57.4252 26.0224C51.558 26.8223 46.4248 29.8893 43.1547 34.5488C40.4354 38.4474 39.185 43.2083 39.5988 48.0883C40.0126 52.9683 42.0673 57.6927 45.4421 61.5238L24.4398 91.4493L86.045 134.685L107.047 104.76C116.806 108.593 127.583 105.733 133.193 97.7396C136.463 93.0801 137.602 87.2099 136.36 81.4203C135.117 75.6307 131.595 70.396 126.568 66.8678C123.819 64.9388 120.765 63.6473 117.513 62.9387C120.384 53.8092 116.598 43.4821 108.21 37.5954ZM71.9333 84.2458L76.6722 87.5716L62.2355 108.142L57.4967 104.816L71.9333 84.2458ZM57.7167 74.2683L62.4556 77.5941L48.019 98.1644L43.2801 94.8386L57.7167 74.2683ZM86.1499 94.2233L90.8888 97.5491L76.4521 118.119L71.7133 114.794L86.1499 94.2233ZM20.3816 97.2317L17.2991 101.624C16.4816 102.789 16.1968 104.256 16.5074 105.704C16.818 107.151 17.6986 108.46 18.9555 109.342L71.083 145.926C72.3398 146.808 73.8699 147.191 75.3367 146.991C76.8035 146.791 78.0868 146.024 78.9043 144.86L81.9868 140.468L20.3816 97.2317Z" fill="url(#paint1_linear_653_1820)"/>
<defs>
<linearGradient id="paint0_linear_653_1820" x1="67.21" y1="31.5954" x2="4.01923" y2="121.634" gradientUnits="userSpaceOnUse">
<stop stop-color="#F7744C"/>
<stop offset="1" stop-color="#F7744C" stop-opacity="0"/>
</linearGradient>
<linearGradient id="paint1_linear_653_1820" x1="108.21" y1="37.5954" x2="45.0192" y2="127.634" gradientUnits="userSpaceOnUse">
<stop stop-color="#F7744C"/>
<stop offset="1" stop-color="#F7744C" stop-opacity="0"/>
</linearGradient>
</defs>
</svg>
