<svg width="99" height="194" viewBox="0 0 99 194" fill="none" xmlns="http://www.w3.org/2000/svg">
<g opacity="0.1">
<path fill-rule="evenodd" clip-rule="evenodd" d="M51.4651 13.8308C52.378 14.5265 52.554 15.8305 51.8583 16.7433L31.0087 44.1001C30.313 45.0129 30.4891 46.3169 31.4019 47.0126L33.0572 48.2742C33.9701 48.9699 35.2741 48.7939 35.9698 47.8811L56.3397 21.1536C57.1971 20.0287 58.9034 20.0703 59.7049 21.2357L64.047 27.5496C64.5559 28.2896 64.5319 29.2727 63.9875 29.9869L43.8065 56.4665L43.8065 56.4666L43.8065 56.4667L34.528 70.3562L34.5279 70.3562L34.5279 70.3562L17.0087 72.0303C16.844 72.046 16.6794 72.0419 16.518 72.0189C1.64207 96.2849 -26.8644 141.474 -39.8471 131.579C-52.8246 121.688 -16.3361 82.6373 3.39423 62.0601C3.31926 61.9029 3.26381 61.7357 3.23009 61.5621L-0.010792 44.8784C-0.132473 44.252 0.0403656 43.6044 0.457999 43.122L10.7289 31.257L10.7289 31.257L10.729 31.257L30.91 4.77737C31.4544 4.06313 32.3959 3.77934 33.2443 4.0738L40.4835 6.58642C41.8197 7.05022 42.3123 8.68443 41.4549 9.8094L21.085 36.5368C20.3893 37.4497 20.5653 38.7537 21.4782 39.4494L23.134 40.7113C24.0468 41.4071 25.3508 41.231 26.0465 40.3182L46.896 12.9614C47.5918 12.0486 48.8957 11.8726 49.8086 12.5683L51.4651 13.8308Z" fill="url(#paint0_linear_653_1818)"/>
<path fill-rule="evenodd" clip-rule="evenodd" d="M36.6377 101.48C48.4524 101.551 61.9378 94.4265 71.5821 81.7722C85.0342 64.1215 86.1317 42.1178 74.4803 31.3819C73.6362 30.6042 72.3232 30.7861 71.6275 31.6989L25.0991 92.749C8.33591 109.542 -23.4039 144.111 -10.2789 154.114C2.8554 164.124 28.7165 124.991 36.6377 101.48Z" fill="url(#paint1_linear_653_1818)"/>
</g>
<path fill-rule="evenodd" clip-rule="evenodd" d="M53.3148 40.7912C54.2277 41.4869 54.4037 42.7909 53.708 43.7037L32.8585 71.0605C32.1628 71.9733 32.3388 73.2773 33.2516 73.973L34.907 75.2346C35.8198 75.9303 37.1238 75.7543 37.8195 74.8414L58.1894 48.114C59.0468 46.989 60.7531 47.0307 61.5546 48.1961L65.8967 54.51C66.4056 55.2499 66.3816 56.2331 65.8372 56.9473L45.6562 83.4269L45.6562 83.427L45.6562 83.4271L36.3778 97.3166L36.3777 97.3166L36.3776 97.3166L18.8584 98.9906C18.6937 99.0064 18.5291 99.0023 18.3678 98.9793C3.49181 123.245 -25.0146 168.434 -37.9974 158.539C-50.9748 148.649 -14.4863 109.598 5.24397 89.0205C5.16899 88.8633 5.11354 88.6961 5.07982 88.5225L1.83894 71.8388C1.71726 71.2124 1.8901 70.5648 2.30773 70.0824L12.5786 58.2174L12.5786 58.2174L12.5787 58.2174L32.7598 31.7378C33.3041 31.0235 34.2457 30.7397 35.094 31.0342L42.3332 33.5468C43.6695 34.0106 44.162 35.6448 43.3046 36.7698L22.9347 63.4972C22.239 64.4101 22.415 65.7141 23.3279 66.4098L24.9837 67.6717C25.8965 68.3674 27.2005 68.1914 27.8962 67.2786L48.7458 39.9218C49.4415 39.009 50.7455 38.833 51.6583 39.5287L53.3148 40.7912Z" fill="url(#paint2_linear_653_1818)"/>
<path fill-rule="evenodd" clip-rule="evenodd" d="M38.4874 128.44C50.3021 128.511 63.7875 121.387 73.4318 108.733C86.884 91.0819 87.9814 69.0782 76.33 58.3423C75.4859 57.5646 74.173 57.7464 73.4773 58.6593L26.9488 119.709C10.1856 136.503 -21.5542 171.071 -8.42922 181.074C4.70514 191.084 30.5662 151.952 38.4874 128.44Z" fill="url(#paint3_linear_653_1818)"/>
<defs>
<linearGradient id="paint0_linear_653_1818" x1="50.6601" y1="13.2172" x2="-39.6576" y2="131.723" gradientUnits="userSpaceOnUse">
<stop stop-color="#626360"/>
<stop offset="1" stop-color="#626360" stop-opacity="0"/>
</linearGradient>
<linearGradient id="paint1_linear_653_1818" x1="83.7143" y1="38.409" x2="-6.6034" y2="156.915" gradientUnits="userSpaceOnUse">
<stop stop-color="#626360"/>
<stop offset="1" stop-color="#626360" stop-opacity="0"/>
</linearGradient>
<linearGradient id="paint2_linear_653_1818" x1="52.5098" y1="40.1776" x2="-37.8079" y2="158.684" gradientUnits="userSpaceOnUse">
<stop stop-color="#626360"/>
<stop offset="1" stop-color="#626360" stop-opacity="0"/>
</linearGradient>
<linearGradient id="paint3_linear_653_1818" x1="85.564" y1="65.3694" x2="-4.75367" y2="183.876" gradientUnits="userSpaceOnUse">
<stop stop-color="#626360"/>
<stop offset="1" stop-color="#626360" stop-opacity="0"/>
</linearGradient>
</defs>
</svg>
