<svg width="142" height="11" viewBox="0 0 142 11" fill="none" xmlns="http://www.w3.org/2000/svg">
<path d="M145.176 1.69001C144.567 1.74122 144.019 1.74122 143.409 1.79244C142.617 1.84365 141.825 1.94607 140.972 1.99728C139.632 2.09971 138.292 2.30456 137.012 2.56062C135.611 2.8679 134.271 3.2776 132.991 3.84093C132.747 3.94336 132.504 4.09699 132.199 4.14821C131.894 4.25063 131.651 4.35306 131.346 4.45548C130.92 4.60912 130.554 4.71154 130.128 4.81397C129.64 4.91639 129.153 5.01882 128.665 5.07003C128.239 5.12124 127.812 5.12124 127.386 5.12124C126.959 5.12124 126.594 5.07003 126.167 5.07003C125.619 5.01882 125.071 4.91639 124.522 4.76276C123.974 4.60912 123.426 4.45548 122.877 4.25063C121.963 3.89214 121.05 3.48245 120.136 3.07275C119.709 2.8679 119.344 2.66305 118.917 2.40698C118.43 2.15092 117.942 1.89486 117.455 1.6388C117.089 1.43395 116.663 1.28031 116.236 1.12667C115.993 1.02425 115.688 0.973036 115.383 0.921824C115.079 0.870611 114.835 0.870611 114.53 0.819399C114.348 0.819399 114.165 0.819399 114.043 0.870611C113.799 0.921824 113.556 0.973036 113.312 1.02425C112.946 1.12667 112.581 1.28031 112.215 1.43395C111.484 1.74122 110.814 2.0485 110.083 2.35577C109.169 2.76547 108.316 3.12396 107.341 3.48245C106.793 3.68729 106.184 3.84093 105.635 3.99457C104.843 4.19942 104.112 4.30184 103.32 4.40427C102.589 4.50669 101.797 4.50669 101.066 4.55791C100.213 4.55791 99.3599 4.50669 98.5069 4.40427C97.4103 4.25063 96.3745 4.09699 95.2779 3.89214C94.303 3.68729 93.3282 3.43123 92.4143 3.12396C91.5004 2.76547 90.5866 2.40698 89.6727 1.99728C88.6369 1.53637 87.6012 1.07546 86.5045 0.768186C86.078 0.614549 85.6516 0.563337 85.1641 0.460912C84.6767 0.358487 84.1284 0.358487 83.5801 0.358487C83.0317 0.358487 82.5443 0.460912 81.996 0.563337C81.4477 0.665762 80.9602 0.870611 80.4728 1.07546C79.3152 1.58759 78.2795 2.25335 77.2438 2.91911C76.6345 3.32881 76.0252 3.73851 75.416 4.14821C74.9286 4.45548 74.3802 4.81397 73.8319 5.12124C73.2836 5.42852 72.6743 5.68458 72.065 5.94064C71.7604 6.04307 71.5167 6.14549 71.2121 6.1967C70.8465 6.29913 70.42 6.35034 70.0545 6.40155C69.8717 6.40155 69.7498 6.40155 69.5671 6.40155C69.4452 6.40155 69.3234 6.40155 69.2015 6.40155C68.8969 6.35034 68.5923 6.24792 68.2876 6.14549C67.191 5.68458 66.1552 5.12124 65.1804 4.50669C64.693 4.19942 64.2665 3.89214 63.84 3.53366C63.5354 3.2776 63.2308 3.07275 62.9261 2.81668C62.1341 2.20213 61.403 1.48516 60.55 0.921824C60.1845 0.716974 59.8189 0.512124 59.3924 0.307275C59.1487 0.20485 58.905 0.153637 58.6613 0.102425C58.6004 0.102425 58.4785 0.0512124 58.4176 0.0512124C58.2348 0.0512124 58.052 0 57.9302 0C57.8693 0 57.7474 0 57.6865 0H57.6256C57.5037 0 57.3209 0 57.1991 0.0512124C56.8945 0.102425 56.6507 0.153637 56.3461 0.20485C55.7978 0.358487 55.2495 0.512124 54.7011 0.716974C54.2746 0.870611 53.8482 1.02425 53.4217 1.2291C53.117 1.33152 52.8124 1.48516 52.5078 1.58759C52.0204 1.79244 51.5939 1.99728 51.1065 2.20213C50.8628 2.30456 50.6191 2.40698 50.4363 2.50941C50.0098 2.71426 49.5833 2.97032 49.2178 3.17517C48.9131 3.32881 48.6085 3.48245 48.3039 3.68729C47.5118 4.09699 46.7807 4.55791 45.9887 4.96761C44.3437 5.88943 42.6378 6.81125 40.81 7.47701C40.3835 7.63065 40.0179 7.73308 39.5915 7.88671C39.104 8.04035 38.5557 8.14278 38.0074 8.19399C37.7637 8.19399 37.5809 8.2452 37.3372 8.2452C36.9716 8.2452 36.667 8.2452 36.3015 8.19399C35.814 8.14278 35.3266 8.04035 34.9002 7.88671C34.4127 7.68186 33.9253 7.4258 33.4989 7.16974C32.7677 6.70883 32.1585 6.14549 31.5492 5.58215C31.2446 5.32609 30.94 5.01882 30.6353 4.76276C30.2698 4.45548 29.8433 4.14821 29.4777 3.84093C29.1122 3.58487 28.8075 3.38002 28.3811 3.22638C28.0155 3.32881 27.7718 3.22638 27.5281 3.17517C27.2844 3.12396 27.0407 3.07275 26.797 3.07275C26.6142 3.07275 26.4924 3.07275 26.3096 3.12396C26.0659 3.17517 25.8831 3.22638 25.6394 3.32881C25.4566 3.43123 25.2129 3.53366 25.0301 3.63608C24.8474 3.78972 24.6646 3.94336 24.5427 4.09699C24.2381 4.40427 23.9335 4.71154 23.6898 5.01882C23.4461 5.27488 23.2024 5.47973 23.0196 5.73579C22.7759 5.99185 22.4712 6.29913 22.2275 6.55519C21.6792 7.11853 21.0699 7.57944 20.3998 8.04035C19.9123 8.34763 19.364 8.60369 18.8157 8.85975C18.2673 9.01339 17.7799 9.11581 17.2316 9.21824C16.4396 9.26945 15.7085 9.26945 14.9164 9.21824C13.6979 9.0646 12.5403 8.75733 11.3827 8.34763C10.347 7.93793 9.37214 7.52823 8.39733 7.0161C7.90992 6.76004 7.42251 6.50398 6.9351 6.1967C6.44769 5.94064 5.96029 5.63337 5.47288 5.37731C4.98547 5.07003 4.49806 4.81397 4.01065 4.55791C3.52324 4.30184 2.97491 4.04578 2.42658 3.84093C1.39083 3.43123 0.294165 3.17517 -0.802504 3.22638C-1.04621 3.22638 -1.35084 3.2776 -1.59454 3.2776C-1.89917 3.32881 -2.14288 3.38002 -2.38658 3.43123C-2.63029 3.48245 -2.87399 3.58487 -3.05677 3.63608C-3.30047 3.73851 -3.54418 3.84093 -3.78788 3.89214C-5.06733 4.25063 -6.10307 4.76276 -7.07789 5.32609C-7.93085 5.83822 -8.78382 6.40155 -9.51493 7.06732C-9.88048 7.37459 -10.1851 7.68186 -10.4897 7.98914C-10.6116 8.14278 -10.7334 8.29641 -10.7944 8.50126C-10.7944 8.55248 -10.8553 8.6549 -10.8553 8.70611C-10.9162 8.85975 -10.9162 9.01339 -10.9772 9.16703C-11.0381 9.37188 -10.9772 9.57672 -10.7944 9.73036C-10.6116 9.83279 -10.3679 9.884 -10.1242 9.83279C-9.94141 9.78157 -9.81956 9.73036 -9.63678 9.73036C-9.39308 9.67915 -9.2103 9.57672 -8.96659 9.4743C-8.66196 9.32066 -8.54011 8.96218 -8.72289 8.70611C-8.84474 8.55248 -8.96659 8.50126 -9.14937 8.45005C-8.54011 7.88671 -7.86993 7.37459 -7.19974 6.86247C-6.04214 6.14549 -4.82362 5.58215 -3.54418 5.07003C-3.23955 4.96761 -2.93492 4.86518 -2.63029 4.76276C-2.26473 4.71154 -1.83825 4.60912 -1.47269 4.55791C-1.10713 4.50669 -0.802505 4.50669 -0.436949 4.55791C-0.193244 4.60912 -0.0104656 4.60912 0.233238 4.66033C0.598795 4.76276 0.903425 4.86518 1.20806 4.96761C1.81732 5.22367 2.42658 5.47973 2.97491 5.787C3.6451 6.14549 4.25436 6.55519 4.92454 6.96489C5.5338 7.32338 6.20399 7.73308 6.87418 8.09156C7.54436 8.45005 8.21455 8.80854 8.88473 9.11581C10.2251 9.73036 11.6264 10.2425 13.0277 10.601C14.4899 10.9595 16.074 11.1131 17.6581 10.9082C18.3892 10.8058 19.0594 10.6522 19.7296 10.4473C20.3998 10.1913 21.009 9.93521 21.5574 9.57673C22.1666 9.21824 22.7149 8.75733 23.2633 8.29641C23.5679 8.04035 23.8116 7.78429 24.0553 7.52823C24.4209 7.11853 24.7864 6.76004 25.152 6.35034C25.5785 5.88943 26.005 5.37731 26.5533 4.91639C26.6142 4.91639 26.6142 4.86518 26.6751 4.86518C26.7361 4.86518 26.797 4.81397 26.8579 4.81397H26.9188C27.0407 4.81397 27.1016 4.86518 27.2235 4.86518C27.4672 4.96761 27.7109 5.07003 27.9546 5.22367C28.6248 5.63337 29.1731 6.14549 29.7214 6.65762C30.4526 7.27217 31.1837 7.93793 31.9757 8.50126C32.3413 8.75733 32.7068 8.96218 33.0724 9.16703C33.4989 9.42309 33.9863 9.57672 34.4737 9.73036C34.9002 9.884 35.3876 9.93521 35.875 10.0376C36.4233 10.0888 37.0326 10.1401 37.5809 10.0888C38.0683 10.0888 38.5557 9.98642 38.9822 9.93521C39.5305 9.83279 40.0789 9.67915 40.6272 9.52551C41.6629 9.21824 42.6378 8.80854 43.5517 8.39884C44.9529 7.78429 46.2324 7.0161 47.5118 6.29913C48.1211 5.94064 48.7304 5.58215 49.4006 5.22367C50.1317 4.81397 50.8628 4.45548 51.5939 4.04578C51.6548 3.99457 51.7767 3.94336 51.8376 3.94336C52.0813 3.84093 52.325 3.73851 52.5687 3.58487C52.9343 3.43123 53.2998 3.22638 53.7263 3.07275C53.7872 3.02153 53.9091 3.02153 53.97 2.97032C54.2137 2.8679 54.5183 2.76547 54.762 2.66305C55.1885 2.50941 55.6759 2.30456 56.1024 2.15092C56.5289 1.99728 57.0163 1.89486 57.5037 1.79244C57.6256 1.79244 57.6865 1.79244 57.8083 1.79244C57.8693 1.79244 57.9911 1.79244 58.052 1.79244C58.2348 1.84365 58.4176 1.89486 58.6613 1.94607C58.9659 2.09971 59.2706 2.25335 59.5752 2.4582C60.4891 3.12396 61.2811 3.84093 62.1341 4.50669C62.6824 4.91639 63.2308 5.32609 63.7791 5.73579C64.3274 6.09428 64.8758 6.40155 65.4241 6.76004C66.0334 7.11853 66.6426 7.37459 67.2519 7.68186C67.8002 7.93793 68.4704 8.09156 69.0797 8.19399C69.3843 8.2452 69.628 8.2452 69.9326 8.19399C70.2982 8.19399 70.6637 8.14278 71.0293 8.04035C71.6386 7.93793 72.2478 7.78429 72.7962 7.57944C73.4663 7.32338 74.0756 7.06732 74.6849 6.76004C75.5378 6.29913 76.2689 5.787 77.061 5.27488C77.4875 4.96761 77.9749 4.66033 78.4013 4.35306C78.7669 4.09699 79.1325 3.89214 79.498 3.63608C80.2901 3.12396 81.0821 2.71426 81.996 2.35577C82.4225 2.20213 82.849 2.09971 83.3364 2.0485C83.5801 2.0485 83.7628 1.99728 84.0065 1.99728C84.1893 1.99728 84.3721 1.99728 84.6158 2.0485C85.3469 2.15092 86.0171 2.30456 86.6873 2.50941C87.2356 2.71426 87.8449 2.97032 88.3932 3.17517C88.7588 3.32881 89.0634 3.48245 89.429 3.63608C89.7336 3.78972 90.0992 3.94336 90.4647 4.09699C91.1349 4.35306 91.8051 4.60912 92.4753 4.86518C93.2064 5.12124 93.9375 5.27488 94.6686 5.42852C96.2527 5.787 97.8368 5.99185 99.4208 6.14549C100.213 6.24792 101.066 6.24792 101.858 6.24792C102.65 6.24792 103.442 6.14549 104.234 6.04307C105.635 5.88943 107.037 5.53094 108.377 5.07003C109.23 4.76276 110.022 4.40427 110.875 4.04578C111.85 3.63608 112.825 3.17517 113.86 2.76547C114.043 2.71426 114.287 2.66305 114.47 2.61183C114.591 2.61183 114.713 2.61183 114.835 2.61183C115.14 2.66305 115.383 2.71426 115.688 2.81668C116.602 3.17517 117.394 3.6873 118.247 4.14821C119.1 4.66033 120.014 5.07003 120.928 5.47973C121.842 5.88943 122.816 6.1967 123.791 6.50398C124.888 6.81125 126.046 6.96489 127.203 7.0161C128.239 7.06732 129.275 6.96489 130.249 6.76004C131.102 6.6064 131.955 6.29913 132.747 5.99185C133.113 5.83822 133.418 5.73579 133.783 5.58215C134.027 5.47973 134.21 5.37731 134.453 5.27488C134.758 5.12124 135.123 5.01882 135.428 4.86518C137.073 4.30184 138.779 3.99457 140.546 3.78972C141.46 3.68729 142.435 3.63608 143.409 3.53366C144.201 3.48245 145.054 3.43123 145.846 3.38002C147.491 3.2776 149.197 3.17517 150.842 3.22638C151.513 3.22638 152 2.76547 152 2.25335C152 1.74122 151.452 1.28031 150.842 1.28031C149.563 1.28031 148.284 1.38274 147.065 1.43395C146.395 1.58759 145.786 1.6388 145.176 1.69001ZM114.287 2.66305C114.348 2.66305 114.348 2.66305 114.409 2.66305C114.348 2.66305 114.287 2.66305 114.287 2.66305Z" fill="#F7744C"/>
</svg>
