<svg width="92" height="175" viewBox="0 0 92 175" fill="none" xmlns="http://www.w3.org/2000/svg">
<path d="M18.0595 118.288C14.2732 111.377 16.8479 102.662 23.8012 98.8516L24.1164 98.6789C21.6589 90.7352 25.0715 81.8658 32.6945 77.6887C35.6491 76.0697 38.8466 75.3613 41.9522 75.4667C41.826 69.0199 45.2369 62.6712 51.3235 59.3361C57.41 56.001 64.5965 56.5428 69.9623 60.1186C71.5447 57.4443 73.8626 55.1307 76.8172 53.5117C84.4402 49.3346 93.7523 51.2316 99.125 57.5779L99.4402 57.4052C106.393 53.5952 115.125 56.1156 118.912 63.0257C120.167 65.316 120.725 67.7843 120.65 70.218L23.1859 123.623C21.0943 122.377 19.3145 120.578 18.0595 118.288ZM27.8634 136.179C26.2437 133.223 27.3472 129.488 30.3215 127.858L120.379 78.5112C123.354 76.8814 127.096 77.9616 128.715 80.9175C136.277 94.7181 133.989 111.295 124.227 122.6L125.428 125.632C126.75 128.98 125.358 132.797 122.167 134.546L76.5674 159.532C73.3961 161.27 69.4103 160.4 67.3002 157.483L65.401 154.859C50.6284 156.972 35.4254 149.98 27.8634 136.179Z" fill="url(#paint0_linear_653_1819)"/>
<path opacity="0.2" d="M18.0595 86.5823C14.2732 79.6723 16.8479 70.9565 23.8012 67.1464L24.1164 66.9737C21.6589 59.03 25.0715 50.1606 32.6945 45.9835C35.6491 44.3645 38.8466 43.6561 41.9522 43.7615C41.826 37.3147 45.2369 30.966 51.3235 27.6309C57.41 24.2958 64.5965 24.8376 69.9623 28.4134C71.5447 25.7391 73.8626 23.4255 76.8172 21.8065C84.4402 17.6294 93.7523 19.5264 99.125 25.8727L99.4402 25.7C106.393 21.89 115.125 24.4104 118.912 31.3205C120.167 33.6108 120.725 36.0791 120.65 38.5128L23.1859 91.9182C21.0943 90.6718 19.3145 88.8726 18.0595 86.5823ZM27.8634 104.474C26.2437 101.518 27.3472 97.783 30.3215 96.1532L120.379 46.806C123.354 45.1762 127.096 46.2564 128.715 49.2123C136.277 63.0129 133.989 79.5895 124.227 90.8943L125.428 93.927C126.75 97.2749 125.358 101.092 122.167 102.84L76.5674 127.827C73.3961 129.565 69.4103 128.694 67.3002 125.778L65.401 123.154C50.6284 125.267 35.4254 118.275 27.8634 104.474Z" fill="url(#paint1_linear_653_1819)"/>
<defs>
<linearGradient id="paint0_linear_653_1819" x1="51.3235" y1="59.3361" x2="99.3773" y2="147.033" gradientUnits="userSpaceOnUse">
<stop stop-color="#B8CA88"/>
<stop offset="1" stop-color="#B8CA88" stop-opacity="0"/>
</linearGradient>
<linearGradient id="paint1_linear_653_1819" x1="51.3235" y1="27.6309" x2="99.3773" y2="115.328" gradientUnits="userSpaceOnUse">
<stop stop-color="#B8CA88"/>
<stop offset="1" stop-color="#B8CA88" stop-opacity="0"/>
</linearGradient>
</defs>
</svg>
