<svg width="25" height="24" viewBox="0 0 25 24" fill="none" xmlns="http://www.w3.org/2000/svg">
<path fill-rule="evenodd" clip-rule="evenodd" d="M13.2842 12.7905H16.051C16.2606 12.7905 16.4617 12.7072 16.61 12.559C16.7582 12.4107 16.8415 12.2097 16.8415 12C16.8415 11.7903 16.7582 11.5893 16.61 11.441C16.4617 11.2928 16.2606 11.2095 16.051 11.2095H13.2842V8.44269C13.2842 8.23303 13.2009 8.03196 13.0527 7.88371C12.9044 7.73546 12.7033 7.65217 12.4937 7.65217C12.284 7.65217 12.0829 7.73546 11.9347 7.88371C11.7864 8.03196 11.7032 8.23303 11.7032 8.44269V11.2095H8.93636C8.72671 11.2095 8.52564 11.2928 8.37739 11.441C8.22914 11.5893 8.14585 11.7903 8.14585 12C8.14585 12.2097 8.22914 12.4107 8.37739 12.559C8.52564 12.7072 8.72671 12.7905 8.93636 12.7905H11.7032V15.5573C11.7032 15.767 11.7864 15.968 11.9347 16.1163C12.0829 16.2645 12.284 16.3478 12.4937 16.3478C12.7033 16.3478 12.9044 16.2645 13.0527 16.1163C13.2009 15.968 13.2842 15.767 13.2842 15.5573V12.7905ZM2.5 12C2.5 6.47726 6.97726 2 12.5 2C18.0227 2 22.5 6.47726 22.5 12C22.5 17.5227 18.0227 22 12.5 22C6.97726 22 2.5 17.5227 2.5 12ZM3.80435 12C3.80435 7.19763 7.69763 3.30435 12.5 3.30435C17.3024 3.30435 21.1957 7.19763 21.1957 12C21.1957 16.8024 17.3024 20.6957 12.5 20.6957C7.69763 20.6957 3.80435 16.8024 3.80435 12Z" fill="#BEC0BB"/>
</svg>
