<svg width="25" height="24" viewBox="0 0 25 24" fill="none" xmlns="http://www.w3.org/2000/svg">
<mask id="path-1-inside-1_429_767" fill="white">
<path fill-rule="evenodd" clip-rule="evenodd" d="M12.5 18.267C11.1091 18.2654 9.77571 17.7122 8.79224 16.7288C7.80877 15.7453 7.25555 14.4119 7.25397 13.021C7.25529 11.63 7.80838 10.2963 8.79189 9.31265C9.77539 8.32896 11.109 7.77561 12.5 7.77403C13.891 7.77561 15.2245 8.32896 16.208 9.31265C17.1915 10.2963 17.7446 11.63 17.746 13.021C17.7444 14.4119 17.1912 15.7453 16.2077 16.7288C15.2242 17.7122 13.8908 18.2654 12.5 18.267ZM20.613 5.13603H17.659L16.546 2.96703C16.3695 2.62366 16.1017 2.33559 15.7722 2.13447C15.4426 1.93335 15.064 1.82698 14.678 1.82703H10.265C9.8713 1.82698 9.48555 1.93759 9.15172 2.14623C8.81789 2.35487 8.54943 2.65315 8.37697 3.00703L7.34097 5.13603H4.38697C4.05595 5.1359 3.72815 5.20098 3.4223 5.32756C3.11644 5.45415 2.83852 5.63975 2.60441 5.87376C2.3703 6.10778 2.18459 6.38563 2.05789 6.69143C1.93118 6.99724 1.86597 7.32501 1.86597 7.65603V19.257C1.86597 19.588 1.93118 19.9158 2.05789 20.2216C2.18459 20.5274 2.3703 20.8053 2.60441 21.0393C2.83852 21.2733 3.11644 21.4589 3.4223 21.5855C3.72815 21.7121 4.05595 21.7772 4.38697 21.777H20.613C20.944 21.7772 21.2718 21.7121 21.5776 21.5855C21.8835 21.4589 22.1614 21.2733 22.3955 21.0393C22.6296 20.8053 22.8153 20.5274 22.942 20.2216C23.0688 19.9158 23.134 19.588 23.134 19.257V7.65603C23.134 7.32501 23.0688 6.99724 22.942 6.69143C22.8153 6.38563 22.6296 6.10778 22.3955 5.87376C22.1614 5.63975 21.8835 5.45415 21.5776 5.32756C21.2718 5.20098 20.944 5.1359 20.613 5.13603Z"/>
</mask>
<path fill-rule="evenodd" clip-rule="evenodd" d="M12.5 18.267C11.1091 18.2654 9.77571 17.7122 8.79224 16.7288C7.80877 15.7453 7.25555 14.4119 7.25397 13.021C7.25529 11.63 7.80838 10.2963 8.79189 9.31265C9.77539 8.32896 11.109 7.77561 12.5 7.77403C13.891 7.77561 15.2245 8.32896 16.208 9.31265C17.1915 10.2963 17.7446 11.63 17.746 13.021C17.7444 14.4119 17.1912 15.7453 16.2077 16.7288C15.2242 17.7122 13.8908 18.2654 12.5 18.267ZM20.613 5.13603H17.659L16.546 2.96703C16.3695 2.62366 16.1017 2.33559 15.7722 2.13447C15.4426 1.93335 15.064 1.82698 14.678 1.82703H10.265C9.8713 1.82698 9.48555 1.93759 9.15172 2.14623C8.81789 2.35487 8.54943 2.65315 8.37697 3.00703L7.34097 5.13603H4.38697C4.05595 5.1359 3.72815 5.20098 3.4223 5.32756C3.11644 5.45415 2.83852 5.63975 2.60441 5.87376C2.3703 6.10778 2.18459 6.38563 2.05789 6.69143C1.93118 6.99724 1.86597 7.32501 1.86597 7.65603V19.257C1.86597 19.588 1.93118 19.9158 2.05789 20.2216C2.18459 20.5274 2.3703 20.8053 2.60441 21.0393C2.83852 21.2733 3.11644 21.4589 3.4223 21.5855C3.72815 21.7121 4.05595 21.7772 4.38697 21.777H20.613C20.944 21.7772 21.2718 21.7121 21.5776 21.5855C21.8835 21.4589 22.1614 21.2733 22.3955 21.0393C22.6296 20.8053 22.8153 20.5274 22.942 20.2216C23.0688 19.9158 23.134 19.588 23.134 19.257V7.65603C23.134 7.32501 23.0688 6.99724 22.942 6.69143C22.8153 6.38563 22.6296 6.10778 22.3955 5.87376C22.1614 5.63975 21.8835 5.45415 21.5776 5.32756C21.2718 5.20098 20.944 5.1359 20.613 5.13603Z" fill="#BEC0BB"/>
<path d="M7.25397 13.021L6.25396 13.0201L6.25397 13.0222L7.25397 13.021ZM12.5 7.77403L12.5011 6.77402L12.4988 6.77403L12.5 7.77403ZM17.746 13.021L18.746 13.0222L18.746 13.0201L17.746 13.021ZM17.659 5.13603L16.7693 5.59257L17.0481 6.13603H17.659V5.13603ZM16.546 2.96703L17.4357 2.51048L17.4354 2.50988L16.546 2.96703ZM14.678 1.82703V2.82703H14.6781L14.678 1.82703ZM10.265 1.82703L10.2648 2.82703H10.265V1.82703ZM8.37697 3.00703L7.47804 2.56893L7.47778 2.56947L8.37697 3.00703ZM7.34097 5.13603V6.13603H7.96646L8.24016 5.57358L7.34097 5.13603ZM4.38697 5.13603L4.38657 6.13603H4.38697V5.13603ZM1.86597 7.65603H2.86597H1.86597ZM1.86597 19.257H2.86597H1.86597ZM4.38697 21.777V20.777H4.38657L4.38697 21.777ZM20.613 21.777L20.6134 20.777H20.613V21.777ZM23.134 19.257H22.134H23.134ZM23.134 7.65603H22.134H23.134ZM12.5011 17.267C11.3751 17.2657 10.2956 16.8179 9.49934 16.0216L8.08513 17.4359C9.25586 18.6066 10.8432 19.2651 12.4988 19.267L12.5011 17.267ZM9.49934 16.0216C8.70313 15.2254 8.25525 14.1459 8.25397 13.0199L6.25397 13.0222C6.25586 14.6778 6.9144 16.2651 8.08513 17.4359L9.49934 16.0216ZM8.25397 13.022C8.25504 11.8958 8.70282 10.8161 9.49906 10.0197L8.08471 8.60561C6.91395 9.7766 6.25554 11.3642 6.25397 13.0201L8.25397 13.022ZM9.49906 10.0197C10.2953 9.2233 11.375 8.77531 12.5011 8.77403L12.4988 6.77403C10.843 6.77592 9.25547 7.43463 8.08471 8.60561L9.49906 10.0197ZM12.4988 8.77403C13.625 8.77531 14.7046 9.2233 15.5009 10.0197L16.9152 8.60561C15.7445 7.43463 14.157 6.77592 12.5011 6.77403L12.4988 8.77403ZM15.5009 10.0197C16.2971 10.8161 16.7449 11.8958 16.746 13.022L18.746 13.0201C18.7444 11.3642 18.086 9.7766 16.9152 8.60561L15.5009 10.0197ZM16.746 13.0199C16.7447 14.1459 16.2968 15.2254 15.5006 16.0216L16.9148 17.4359C18.0855 16.2651 18.7441 14.6778 18.746 13.0222L16.746 13.0199ZM15.5006 16.0216C14.7044 16.8179 13.6248 17.2657 12.4988 17.267L12.5011 19.267C14.1568 19.2651 15.7441 18.6066 16.9148 17.4359L15.5006 16.0216ZM20.613 4.13603H17.659V6.13603H20.613V4.13603ZM18.5487 4.67948L17.4357 2.51048L15.6563 3.42357L16.7693 5.59257L18.5487 4.67948ZM17.4354 2.50988C17.1748 2.00301 16.7796 1.57776 16.2931 1.28087L15.2513 2.98807C15.4239 3.09342 15.5641 3.24431 15.6566 3.42417L17.4354 2.50988ZM16.2931 1.28087C15.8067 0.983986 15.2478 0.826952 14.6778 0.827026L14.6781 2.82703C14.8803 2.827 15.0786 2.88272 15.2513 2.98807L16.2931 1.28087ZM14.678 0.827026H10.265V2.82703H14.678V0.827026ZM10.2651 0.827026C9.68396 0.826957 9.11451 0.990235 8.62172 1.29823L9.68172 2.99423C9.85658 2.88494 10.0586 2.827 10.2648 2.82703L10.2651 0.827026ZM8.62172 1.29823C8.12893 1.60623 7.73263 2.04654 7.47804 2.56893L9.2759 3.44512C9.36623 3.25976 9.50686 3.10352 9.68172 2.99423L8.62172 1.29823ZM7.47778 2.56947L6.44178 4.69847L8.24016 5.57358L9.27616 3.44458L7.47778 2.56947ZM7.34097 4.13603H4.38697V6.13603H7.34097V4.13603ZM4.38736 4.13603C3.92499 4.13584 3.46712 4.22676 3.03989 4.40357L3.80471 6.25156C3.98919 6.1752 4.18691 6.13595 4.38657 6.13603L4.38736 4.13603ZM3.03989 4.40357C2.61266 4.58038 2.22446 4.83964 1.89744 5.16652L3.31138 6.58101C3.45259 6.43986 3.62022 6.32791 3.80471 6.25156L3.03989 4.40357ZM1.89744 5.16652C1.57043 5.4934 1.31103 5.8815 1.13404 6.30866L2.98173 7.07421C3.05815 6.88975 3.17017 6.72216 3.31138 6.58101L1.89744 5.16652ZM1.13404 6.30866C0.95706 6.73582 0.865967 7.19366 0.865967 7.65603H2.86597C2.86597 7.45637 2.9053 7.25866 2.98173 7.07421L1.13404 6.30866ZM0.865967 7.65603V19.257H2.86597V7.65603H0.865967ZM0.865967 19.257C0.865967 19.7194 0.95706 20.1772 1.13404 20.6044L2.98173 19.8388C2.9053 19.6544 2.86597 19.4567 2.86597 19.257H0.865967ZM1.13404 20.6044C1.31103 21.0316 1.57044 21.4197 1.89744 21.7465L3.31138 20.332C3.17017 20.1909 3.05815 20.0233 2.98173 19.8388L1.13404 20.6044ZM1.89744 21.7465C2.22446 22.0734 2.61266 22.3327 3.03989 22.5095L3.80471 20.6615C3.62022 20.5851 3.45259 20.4732 3.31138 20.332L1.89744 21.7465ZM3.03989 22.5095C3.46711 22.6863 3.92499 22.7772 4.38736 22.777L4.38657 20.777C4.18691 20.7771 3.98919 20.7378 3.80471 20.6615L3.03989 22.5095ZM4.38697 22.777H20.613V20.777H4.38697V22.777ZM20.6126 22.777C21.0749 22.7772 21.5328 22.6863 21.96 22.5095L21.1952 20.6615C21.0107 20.7378 20.813 20.7771 20.6134 20.777L20.6126 22.777ZM21.96 22.5095C22.3873 22.3327 22.7755 22.0734 23.1025 21.7465L21.6886 20.332C21.5473 20.4732 21.3797 20.5851 21.1952 20.6615L21.96 22.5095ZM23.1025 21.7465C23.4295 21.4197 23.6889 21.0316 23.8659 20.6044L22.0182 19.8388C21.9418 20.0233 21.8298 20.1909 21.6886 20.332L23.1025 21.7465ZM23.8659 20.6044C24.0429 20.1772 24.134 19.7194 24.134 19.257H22.134C22.134 19.4567 22.0946 19.6544 22.0182 19.8388L23.8659 20.6044ZM24.134 19.257V7.65603H22.134V19.257H24.134ZM24.134 7.65603C24.134 7.19366 24.0429 6.73582 23.8659 6.30866L22.0182 7.07421C22.0946 7.25866 22.134 7.45637 22.134 7.65603H24.134ZM23.8659 6.30866C23.6889 5.8815 23.4295 5.4934 23.1025 5.16652L21.6886 6.58101C21.8298 6.72216 21.9418 6.88975 22.0182 7.07421L23.8659 6.30866ZM23.1025 5.16652C22.7755 4.83964 22.3873 4.58038 21.96 4.40357L21.1952 6.25156C21.3797 6.32791 21.5473 6.43986 21.6886 6.58101L23.1025 5.16652ZM21.96 4.40357C21.5328 4.22676 21.0749 4.13584 20.6126 4.13603L20.6134 6.13603C20.813 6.13595 21.0107 6.1752 21.1952 6.25156L21.96 4.40357Z" fill="#BEC0BB" mask="url(#path-1-inside-1_429_767)"/>
<path d="M10.4821 11.0017C11.0173 10.4663 11.743 10.1651 12.5 10.164C13.257 10.1651 13.9827 10.4663 14.5179 11.0017C15.0532 11.5371 15.3543 12.263 15.355 13.0201C15.3545 13.7772 15.0535 14.5032 14.5182 15.0386C13.983 15.574 13.2571 15.8752 12.5 15.876C11.7429 15.8752 11.0171 15.574 10.4818 15.0386C9.94651 14.5032 9.64557 13.7772 9.64502 13.0201C9.64579 12.263 9.94683 11.5371 10.4821 11.0017Z" fill="#BEC0BB" stroke="#BEC0BB"/>
</svg>
