<svg width="10" height="18" viewBox="0 0 10 18" fill="none" xmlns="http://www.w3.org/2000/svg">
<path fill-rule="evenodd" clip-rule="evenodd" d="M8.37501 17.1C8.19775 17.1001 8.02222 17.0651 7.8585 16.9972C7.69478 16.9292 7.54611 16.8296 7.42101 16.704L0.671013 9.95398C0.545607 9.82861 0.446128 9.67977 0.378257 9.51595C0.310385 9.35213 0.275452 9.17655 0.275452 8.99923C0.275452 8.8219 0.310385 8.64632 0.378257 8.4825C0.446128 8.31868 0.545607 8.16984 0.671013 8.04448L7.42101 1.29448C7.54539 1.16475 7.69442 1.06117 7.85936 0.989798C8.0243 0.918429 8.20183 0.880711 8.38154 0.878856C8.56125 0.877002 8.73952 0.911048 8.9059 0.978998C9.07227 1.04695 9.22341 1.14744 9.35044 1.27457C9.47747 1.4017 9.57784 1.55291 9.64566 1.71934C9.71348 1.88577 9.74738 2.06407 9.74539 2.24378C9.74339 2.42348 9.70554 2.60098 9.63404 2.76587C9.56254 2.93075 9.45884 3.0797 9.32901 3.20398L3.53451 8.99998L9.32901 14.7945C9.51809 14.9832 9.64693 15.2238 9.69921 15.4857C9.7515 15.7477 9.72489 16.0193 9.62275 16.2662C9.52061 16.513 9.34753 16.724 9.12542 16.8724C8.90331 17.0208 8.64215 17.1 8.37501 17.1Z" fill="#20211E"/>
</svg>
