<svg width="23" height="22" viewBox="0 0 23 22" fill="none" xmlns="http://www.w3.org/2000/svg">
<circle cx="11.125" cy="11" r="11" fill="#EEF0EB"/>
<path fill-rule="evenodd" clip-rule="evenodd" d="M15.332 13.793C15.4248 13.8858 15.4985 13.9961 15.5487 14.1174C15.599 14.2387 15.6248 14.3687 15.6248 14.5C15.6248 14.6313 15.599 14.7613 15.5487 14.8826C15.4985 15.0039 15.4248 15.1142 15.332 15.207C15.2392 15.2998 15.1289 15.3735 15.0076 15.4237C14.8863 15.474 14.7563 15.4998 14.625 15.4998C14.4937 15.4998 14.3637 15.474 14.2424 15.4237C14.1211 15.3735 14.0108 15.2998 13.918 15.207L11.125 12.414L8.332 15.207C8.23935 15.3002 8.12919 15.3741 8.00785 15.4246C7.88652 15.4751 7.75641 15.501 7.625 15.501C7.49359 15.501 7.36348 15.4751 7.24215 15.4246C7.12081 15.3741 7.01065 15.3002 6.918 15.207C6.82505 15.1142 6.75132 15.004 6.70101 14.8827C6.6507 14.7614 6.6248 14.6313 6.6248 14.5C6.6248 14.3687 6.6507 14.2386 6.70101 14.1173C6.75132 13.996 6.82505 13.8858 6.918 13.793L9.711 11L6.918 8.207C6.82516 8.11415 6.75151 8.00393 6.70126 7.88263C6.65101 7.76132 6.62515 7.6313 6.62515 7.5C6.62515 7.3687 6.65101 7.23868 6.70126 7.11737C6.75151 6.99607 6.82516 6.88584 6.918 6.793C7.01084 6.70016 7.12107 6.62651 7.24237 6.57626C7.36368 6.52601 7.4937 6.50015 7.625 6.50015C7.7563 6.50015 7.88632 6.52601 8.00763 6.57626C8.12893 6.62651 8.23915 6.70016 8.332 6.793L11.125 9.586L13.918 6.793C14.0108 6.70016 14.1211 6.62651 14.2424 6.57626C14.3637 6.52601 14.4937 6.50015 14.625 6.50015C14.7563 6.50015 14.8863 6.52601 15.0076 6.57626C15.1289 6.62651 15.2392 6.70016 15.332 6.793C15.4248 6.88584 15.4985 6.99607 15.5487 7.11737C15.599 7.23868 15.6248 7.3687 15.6248 7.5C15.6248 7.6313 15.599 7.76132 15.5487 7.88263C15.4985 8.00393 15.4248 8.11415 15.332 8.207L12.539 11L15.332 13.793ZM11.125 0C5.05 0 0.125 4.925 0.125 11C0.125 17.075 5.05 22 11.125 22C17.2 22 22.125 17.075 22.125 11C22.125 4.925 17.2 0 11.125 0Z" fill="#20211E"/>
</svg>
