<svg width="25" height="24" viewBox="0 0 25 24" fill="none" xmlns="http://www.w3.org/2000/svg">
<path fill-rule="evenodd" clip-rule="evenodd" d="M14.2502 6.74963C14.2502 5.78307 13.4667 4.99951 12.5001 4.99951C11.5336 4.99951 10.75 5.78307 10.75 6.74963C10.75 7.7162 11.5336 8.49976 12.5001 8.49976C13.4667 8.49976 14.2502 7.7162 14.2502 6.74963ZM12.5001 10.2499C13.4667 10.2499 14.2502 11.0334 14.2502 12C14.2502 12.9666 13.4667 13.7501 12.5001 13.7501C11.5336 13.7501 10.75 12.9666 10.75 12C10.75 11.0334 11.5336 10.2499 12.5001 10.2499ZM12.5001 15.5002C13.4667 15.5002 14.2502 16.2838 14.2502 17.2504C14.2502 18.2169 13.4667 19.0005 12.5001 19.0005C11.5336 19.0005 10.75 18.2169 10.75 17.2504C10.75 16.2838 11.5336 15.5002 12.5001 15.5002Z" fill="#20211E"/>
</svg>
