<svg width="25" height="24" viewBox="0 0 25 24" fill="none" xmlns="http://www.w3.org/2000/svg">
<path fill-rule="evenodd" clip-rule="evenodd" d="M21.5 5.5C21.5 3.567 19.933 2 18 2C16.067 2 14.5 3.567 14.5 5.5C14.5 5.71935 14.5202 5.934 14.5588 6.14217L9.19318 9.27221C8.59311 8.78913 7.83032 8.5 7 8.5C5.067 8.5 3.5 10.067 3.5 12C3.5 13.933 5.067 15.5 7 15.5C7.82804 15.5 8.58891 15.2125 9.18822 14.7318L14.5573 17.8659C14.5197 18.0715 14.5 18.2835 14.5 18.5C14.5 20.433 16.067 22 18 22C19.933 22 21.5 20.433 21.5 18.5C21.5 16.567 19.933 15 18 15C17.0045 15 16.1061 15.4156 15.4688 16.0827L10.3294 13.0825C10.4401 12.7416 10.5 12.3778 10.5 12C10.5 11.6248 10.4409 11.2633 10.3316 10.9244L15.4746 7.92329C16.1115 8.58691 17.0075 9 18 9C19.933 9 21.5 7.433 21.5 5.5ZM16.5 18.5C16.5 17.6716 17.1716 17 18 17C18.8284 17 19.5 17.6716 19.5 18.5C19.5 19.3284 18.8284 20 18 20C17.1716 20 16.5 19.3284 16.5 18.5ZM7 10.5C6.17157 10.5 5.5 11.1716 5.5 12C5.5 12.8284 6.17157 13.5 7 13.5C7.82843 13.5 8.5 12.8284 8.5 12C8.5 11.1716 7.82843 10.5 7 10.5ZM16.5 5.5C16.5 4.67157 17.1716 4 18 4C18.8284 4 19.5 4.67157 19.5 5.5C19.5 6.32843 18.8284 7 18 7C17.1716 7 16.5 6.32843 16.5 5.5Z" fill="#20211E"/>
</svg>
