<svg width="25" height="24" viewBox="0 0 25 24" fill="none" xmlns="http://www.w3.org/2000/svg">
<path fill-rule="evenodd" clip-rule="evenodd" d="M6.82856 4.99957C5.08486 4.99957 3.5 6.40638 3.5 8.35861V15.6414C3.5 17.5936 5.08487 19.0004 6.82856 19.0004H14.2665C15.5786 19.0004 16.8 18.2044 17.3249 16.9786L17.4807 17.0843C18.3219 17.6549 19.3099 17.6392 20.0797 17.2444C20.8515 16.8487 21.5 16.0116 21.5 14.8953V9.10474C21.5 7.98837 20.8515 7.15131 20.0797 6.75554C19.3099 6.36078 18.3219 6.34506 17.4806 6.91571L17.3249 7.02134C16.8 5.79553 15.5786 4.99957 14.2665 4.99957H6.82856ZM20.0345 6.84322C19.3052 6.46922 18.3734 6.44918 17.5728 6.97286C17.5606 6.98086 17.5484 6.98898 17.5363 6.99722C18.345 6.44865 19.294 6.46351 20.0345 6.84322Z" fill="#BEC0BB"/>
</svg>
