<svg width="25" height="24" viewBox="0 0 25 24" fill="none" xmlns="http://www.w3.org/2000/svg">
<g id="icon-search-mono">
<path id="Vector" d="M22.3491 20.1509L17.742 15.544C18.827 14.106 19.4781 12.3239 19.4781 10.3879C19.4781 5.65195 15.624 1.79895 10.889 1.79895C6.15305 1.79995 2.30005 5.65295 2.30005 10.389C2.30005 15.124 6.15305 18.978 10.889 18.978C12.824 18.978 14.607 18.327 16.045 17.242L20.6521 21.849C20.886 22.083 21.1931 22.2 21.5 22.2C21.807 22.2 22.114 22.083 22.3491 21.8479C22.8171 21.3799 22.8171 20.6199 22.3491 20.1509ZM4.70005 10.389C4.70005 6.97595 7.47605 4.19995 10.889 4.19995C14.301 4.19995 17.077 6.97595 17.077 10.3879C17.077 13.7999 14.301 16.576 10.889 16.576C7.47605 16.577 4.70005 13.801 4.70005 10.389Z" fill="#E1E2DE"/>
</g>
</svg>
