<svg width="25" height="24" viewBox="0 0 25 24" fill="none" xmlns="http://www.w3.org/2000/svg">
<path d="M6.68193 18.5444H20.3048C20.6879 18.5444 21 18.2614 21 17.914V2.5H6.82252C5.26681 2.5 4 3.66264 4 5.09142V19.2139C4 19.235 4.00309 19.256 4.00618 19.284V19.3008C4.00154 19.3316 4 19.361 4 19.3918C4 20.5545 5.20347 21.5 6.68193 21.5H20.3048C20.6879 21.5 21 21.217 21 20.8697C21 20.5223 20.6879 20.2393 20.3048 20.2393H6.68193C5.9821 20.2393 5.3904 19.8513 5.3904 19.3918C5.3904 18.9324 5.9821 18.5444 6.68193 18.5444ZM5.3904 5.09142C5.3904 4.35742 6.03308 3.76069 6.82252 3.76069H19.6081V17.2837H6.68193C6.22774 17.2837 5.7859 17.3733 5.3904 17.5456V5.09142Z" fill="#E1E2DE"/>
<path d="M14.7262 11.1834L12.3501 13.3377L12.4073 13.3742C12.6468 13.524 12.9295 13.5969 13.2261 13.5843C13.5907 13.5703 13.9367 13.4302 14.2009 13.1907L14.7246 12.7158L17.3355 15.0831C17.4483 15.1853 17.5997 15.2414 17.7588 15.2414C17.9179 15.2414 18.0693 15.1853 18.1821 15.0831C18.4154 14.8716 18.4154 14.527 18.1821 14.3155L14.7262 11.182V11.1834Z" fill="#E1E2DE"/>
<path d="M10.1348 11.3416L10.9814 10.574L8.96374 8.74462C8.85714 8.64797 8.82007 8.49808 8.86796 8.3454L9.09351 7.6086L11.6735 9.94788L12.5201 9.18026L9.53072 6.46977C9.31752 6.27647 9.01318 6.20363 8.71656 6.27367C8.41221 6.34651 8.16967 6.56222 8.08624 6.83817L7.71392 8.05404C7.55325 8.58073 7.70774 9.13963 8.11714 9.51084L10.1348 11.3402V11.3416Z" fill="#E1E2DE"/>
<path d="M8.2191 14.3155C7.98582 14.527 7.98582 14.8716 8.2191 15.0831C8.33188 15.1853 8.48328 15.2414 8.6424 15.2414C8.80153 15.2414 8.95293 15.1853 9.0657 15.0831L13.895 10.7043C14.3013 10.9256 14.7772 11.0433 15.2715 11.0433C16.129 11.0433 16.9972 10.7015 17.6553 10.1048C18.2269 9.58648 18.5884 8.92532 18.6718 8.24314C18.7645 7.48673 18.5004 6.76393 17.9473 6.26246C17.4684 5.82822 16.8103 5.58869 16.0934 5.58869C15.236 5.58869 14.3678 5.93048 13.7097 6.5272C12.6483 7.48953 12.3749 8.91691 13.0469 9.93807L8.2191 14.3155ZM14.5563 7.29482C14.9919 6.90121 15.5512 6.67428 16.0934 6.67428C16.4951 6.67428 16.8427 6.79755 17.1007 7.03008C17.4004 7.30183 17.5348 7.68984 17.4823 8.12268C17.4282 8.56112 17.1888 8.99115 16.8087 9.33714C16.3746 9.73076 15.8138 9.95768 15.2715 9.95768C14.8699 9.95768 14.5223 9.83442 14.2643 9.60189C13.6432 9.03878 13.7745 8.00361 14.5563 7.29482Z" fill="#E1E2DE"/>
</svg>
