<svg width="24" height="24" viewBox="0 0 24 24" fill="none" xmlns="http://www.w3.org/2000/svg">
<path fill-rule="evenodd" clip-rule="evenodd" d="M15.0562 8.46437C15.2174 8.09256 15.2996 7.69614 15.2995 7.29721C15.2995 6.49395 14.9658 5.71182 14.3526 5.12627C13.7375 4.53894 12.8921 4.19991 11.9997 4.2C11.1072 4.20009 10.2619 4.53928 9.64693 5.12673C9.34301 5.41706 9.10503 5.75872 8.94377 6.13068C8.78256 6.50249 8.70042 6.89892 8.70046 7.29784C8.70055 8.1011 9.03421 8.88323 9.6474 9.46877C10.2625 10.0561 11.1079 10.3951 12.0003 10.395C12.4411 10.395 12.8763 10.312 13.2808 10.1519C13.6851 9.99193 14.049 9.75877 14.3531 9.46832C14.657 9.17799 14.895 8.83633 15.0562 8.46437ZM4.20466 18.5872C4.24526 18.624 4.32367 18.6829 4.46679 18.7604C4.86775 18.9777 5.51223 19.1822 6.36722 19.3493C8.05474 19.6791 10.218 19.8 12 19.8C13.782 19.8 15.9453 19.6791 17.6328 19.3493C18.4878 19.1822 19.1322 18.9777 19.5332 18.7604C19.6763 18.6829 19.7547 18.624 19.7953 18.5872C19.6918 17.4879 17.8409 14.1098 12 14.1098C6.15914 14.1098 4.3082 17.4879 4.20466 18.5872ZM19.8341 18.5435C19.8349 18.5436 19.8323 18.5487 19.824 18.5585C19.8292 18.5483 19.8333 18.5434 19.8341 18.5435ZM4.17603 18.5585C4.16766 18.5487 4.16507 18.5436 4.16586 18.5435C4.16666 18.5434 4.17084 18.5483 4.17603 18.5585ZM16.1572 8.94171C16.3833 8.42029 16.4996 7.86144 16.4995 7.29709C16.4994 6.15731 16.0252 5.06427 15.1813 4.25841C14.3374 3.45255 13.1929 2.99988 11.9995 3C10.8062 3.00012 9.66176 3.453 8.81802 4.25903C8.40024 4.65813 8.06886 5.13192 7.84279 5.65334C7.61672 6.17476 7.5004 6.7336 7.50046 7.29796C7.50058 8.43774 7.97476 9.53078 8.81867 10.3366C9.66258 11.1425 10.8071 11.5952 12.0005 11.595C12.5913 11.595 13.1764 11.4838 13.7223 11.2678C14.2682 11.0517 14.7642 10.7351 15.182 10.336C15.5998 9.93692 15.9311 9.46313 16.1572 8.94171ZM3 18.6805C3 16.8482 5.52048 12.9098 12 12.9098C18.4795 12.9098 21 16.8482 21 18.6805C21 20.5119 15.6346 21 12 21C8.36544 21 3 20.5119 3 18.6805Z" fill="#E1E2DE"/>
</svg>
