<svg width="25" height="24" viewBox="0 0 25 24" fill="none" xmlns="http://www.w3.org/2000/svg">
<path fill-rule="evenodd" clip-rule="evenodd" d="M16.0214 17.9567H17.0223V9.99332H16.0214L14.0415 11.3132V12.3141L15.9774 11.0272H16.0214V17.9567ZM9.47193 13.4359V14.3048H10.1209C10.1655 14.305 10.2094 14.306 10.2527 14.3077C10.5315 14.3191 10.7805 14.3625 10.998 14.4337C11.0918 14.4644 11.1798 14.5002 11.2617 14.5409C11.4076 14.6133 11.5345 14.7011 11.6413 14.802C11.6667 14.826 11.6909 14.8507 11.714 14.8761C11.9358 15.1202 12.0533 15.4308 12.0567 15.7844C12.0567 15.7862 12.0567 15.7879 12.0567 15.7897C12.0567 15.791 12.0567 15.7924 12.0567 15.7937C12.0488 16.6191 11.2959 17.1826 10.2529 17.1865C10.2492 17.1865 10.2455 17.1866 10.2419 17.1866C9.29044 17.1866 8.53701 16.7136 8.48201 15.9547H7.48109C7.48204 15.9789 7.48339 16.003 7.48513 16.0269C7.51376 16.4198 7.649 16.7706 7.8708 17.0658C8.33869 17.6885 9.1918 18.0639 10.2419 18.0665C10.2455 18.0665 10.2492 18.0665 10.2529 18.0665C11.8396 18.0665 13.0262 17.1017 13.0246 15.7961C13.0246 15.7939 13.0246 15.7918 13.0246 15.7897C13.0246 15.7876 13.0246 15.7856 13.0247 15.7835C13.0262 15.2643 12.8609 14.8164 12.5588 14.4822C12.3799 14.2844 12.153 14.1264 11.8844 14.0171C11.7297 13.9542 11.5612 13.9074 11.38 13.8784C11.3746 13.8775 11.3692 13.8767 11.3638 13.8758V13.8208C11.3667 13.82 11.3697 13.8192 11.3726 13.8183C11.5533 13.7664 11.7195 13.6946 11.8689 13.6048C12.1056 13.4624 12.2999 13.2746 12.4425 13.0486C12.6142 12.7766 12.711 12.4491 12.7166 12.0786C12.7166 12.0742 12.7167 12.0699 12.7167 12.0656C12.7169 12.0495 12.7169 12.0333 12.7167 12.017C12.7277 10.8786 11.8037 9.88317 10.2859 9.88317C10.2839 9.88317 10.282 9.88317 10.2801 9.88317C10.2765 9.88318 10.2729 9.88319 10.2693 9.8832C9.33453 9.88758 8.50498 10.2627 8.03945 10.8839C7.81478 11.1837 7.6749 11.5408 7.64888 11.9412C7.64772 11.9591 7.64679 11.977 7.64608 11.995H8.603C8.647 11.2141 9.42243 10.7466 10.2749 10.7411C10.2785 10.7411 10.2822 10.7411 10.2859 10.7412C11.1625 10.7506 11.7335 11.2495 11.7589 12.0077C11.7591 12.0147 11.7593 12.0216 11.7595 12.0286C11.7597 12.043 11.7598 12.0574 11.7597 12.072C11.7615 12.3414 11.6896 12.5812 11.5578 12.7816C11.547 12.798 11.5358 12.8142 11.5242 12.83C11.4318 12.9567 11.3143 13.0662 11.1757 13.156C11.1066 13.2007 11.0322 13.2405 10.9531 13.2751C10.7488 13.3644 10.5125 13.4187 10.2527 13.4324C10.2106 13.4346 10.168 13.4358 10.1247 13.4359M10.1209 13.4359H9.47193H10.1209ZM2.5 5.33333C2.5 3.49238 3.99238 2 5.83333 2H19.1667C21.0076 2 22.5 3.49238 22.5 5.33333V18.6667C22.5 20.5076 21.0076 22 19.1667 22H5.83333C3.99238 22 2.5 20.5076 2.5 18.6667V5.33333ZM5.83333 3.11111C4.60603 3.11111 3.61111 4.10603 3.61111 5.33333V18.6667C3.61111 19.894 4.60603 20.8889 5.83333 20.8889H19.1667C20.394 20.8889 21.3889 19.894 21.3889 18.6667V5.33333C21.3889 4.10603 20.394 3.11111 19.1667 3.11111H5.83333Z" fill="#E1E2DE"/>
<path d="M9.45759 6.98026C9.45759 7.50789 9.02986 7.93562 8.50223 7.93562C7.9746 7.93562 7.54688 7.50789 7.54688 6.98026C7.54688 6.45263 7.9746 6.0249 8.50223 6.0249C9.02986 6.0249 9.45759 6.45263 9.45759 6.98026Z" fill="#E1E2DE"/>
<path d="M18.0553 6.98026C18.0553 7.50789 17.6275 7.93562 17.0999 7.93562C16.5723 7.93562 16.1445 7.50789 16.1445 6.98026C16.1445 6.45263 16.5723 6.0249 17.0999 6.0249C17.6275 6.0249 18.0553 6.45263 18.0553 6.98026Z" fill="#E1E2DE"/>
</svg>
