<svg width="24" height="24" viewBox="0 0 24 24" fill="none" xmlns="http://www.w3.org/2000/svg">
<g id="icon-home-mono">
<path id="Vector" fill-rule="evenodd" clip-rule="evenodd" d="M21.069 8.20395L12.622 1.48695C12.4453 1.3461 12.226 1.26941 12 1.26941C11.7741 1.26941 11.5548 1.3461 11.378 1.48695L2.93005 8.20395C2.6946 8.39123 2.50443 8.62921 2.37371 8.90017C2.24299 9.17114 2.17508 9.4681 2.17505 9.76895V19.1869C2.17505 19.8235 2.42791 20.4339 2.87799 20.884C3.32808 21.3341 3.93853 21.5869 4.57505 21.5869H10V16.8349C10 16.5697 10.1054 16.3154 10.2929 16.1278C10.4805 15.9403 10.7348 15.8349 11 15.8349H13C13.2653 15.8349 13.5196 15.9403 13.7072 16.1278C13.8947 16.3154 14 16.5697 14 16.8349V21.5869H19.424C20.0606 21.5869 20.671 21.3341 21.1211 20.884C21.5712 20.4339 21.824 19.8235 21.824 19.1869V9.76995C21.824 9.4691 21.7561 9.17214 21.6254 8.90117C21.4947 8.63021 21.3045 8.39223 21.069 8.20495" fill="#E1E2DE"/>
</g>
</svg>
