<svg width="25" height="24" viewBox="0 0 25 24" fill="none" xmlns="http://www.w3.org/2000/svg">
<g id="icon-plus-circle-mono">
<path id="Vector" fill-rule="evenodd" clip-rule="evenodd" d="M16.992 13H13.492V16.5C13.492 16.7652 13.3866 17.0196 13.1991 17.2071C13.0116 17.3946 12.7572 17.5 12.492 17.5C12.2268 17.5 11.9724 17.3946 11.7849 17.2071C11.5974 17.0196 11.492 16.7652 11.492 16.5V13H7.992C7.72678 13 7.47243 12.8946 7.28489 12.7071C7.09736 12.5196 6.992 12.2652 6.992 12C6.992 11.7348 7.09736 11.4804 7.28489 11.2929C7.47243 11.1054 7.72678 11 7.992 11H11.492V7.5C11.492 7.23478 11.5974 6.98043 11.7849 6.79289C11.9724 6.60536 12.2268 6.5 12.492 6.5C12.7572 6.5 13.0116 6.60536 13.1991 6.79289C13.3866 6.98043 13.492 7.23478 13.492 7.5V11H16.992C17.2572 11 17.5116 11.1054 17.6991 11.2929C17.8866 11.4804 17.992 11.7348 17.992 12C17.992 12.2652 17.8866 12.5196 17.6991 12.7071C17.5116 12.8946 17.2572 13 16.992 13ZM12.5 1C6.425 1 1.5 5.925 1.5 12C1.5 18.075 6.425 23 12.5 23C18.575 23 23.5 18.075 23.5 12C23.5 5.925 18.575 1 12.5 1Z" fill="#E1E2DE"/>
</g>
</svg>
