<svg width="25" height="24" viewBox="0 0 25 24" fill="currentColor" xmlns="http://www.w3.org/2000/svg">
<g id="icon-picture-mono">
<path id="Subtract" fill-rule="evenodd" clip-rule="evenodd" d="M4.963 2H19.537C20.1902 2 20.8167 2.25949 21.2786 2.7214C21.7405 3.1833 22 3.80977 22 4.463V19.037C22 19.6902 21.7405 20.3167 21.2786 20.7786C20.8167 21.2405 20.1902 21.5 19.537 21.5H4.963C4.30977 21.5 3.6833 21.2405 3.2214 20.7786C2.75949 20.3167 2.5 19.6902 2.5 19.037V4.463C2.5 3.80977 2.75949 3.1833 3.2214 2.7214C3.6833 2.25949 4.30977 2 4.963 2ZM8.5 5C8.5 5.55228 8.05228 6 7.5 6C6.94772 6 6.5 5.55228 6.5 5C6.5 4.44772 6.94772 4 7.5 4C8.05228 4 8.5 4.44772 8.5 5ZM17.5 6C18.0523 6 18.5 5.55228 18.5 5C18.5 4.44772 18.0523 4 17.5 4C16.9477 4 16.5 4.44772 16.5 5C16.5 5.55228 16.9477 6 17.5 6ZM17.3034 9.12454V18.1411H16.1701V10.2952H16.1202L13.9284 11.7523V10.619L16.1701 9.12454H17.3034ZM6.5 15.8745C6.55604 17.3067 7.84501 18.2656 9.63836 18.2656C11.4379 18.2656 12.7829 17.1697 12.7767 15.6877C12.7829 14.5419 12.0731 13.7013 10.8962 13.5207V13.4585C11.8427 13.1907 12.4405 12.4435 12.428 11.416C12.4405 10.1271 11.3943 9 9.67572 9C8.07541 9 6.74285 9.95894 6.68681 11.3911H7.77029C7.8201 10.5069 8.6981 9.97762 9.66326 9.9714C10.6907 9.97762 11.3508 10.5754 11.3445 11.4783C11.3508 12.4061 10.5848 13.0226 9.48891 13.0226H8.75414V14.0064H9.48891C10.89 14.0127 11.6746 14.7038 11.6808 15.6877C11.6746 16.628 10.8152 17.2693 9.6259 17.2693C8.54865 17.2693 7.69556 16.7338 7.6333 15.8745H6.5Z" fill="#E1E2DE"/>
</g>
</svg>
