<svg width="25" height="24" viewBox="0 0 25 24" fill="none" xmlns="http://www.w3.org/2000/svg">
<path fill-rule="evenodd" clip-rule="evenodd" d="M10.6983 3C6.72857 3 3.5 6.39175 3.5 10.5622C3.5 14.7326 6.72857 18.1243 10.6983 18.1243C12.5081 18.1243 14.163 17.4176 15.4278 16.2563L20.1303 20.7745C20.2861 20.9236 20.4845 21 20.682 21C20.9034 21 21.1243 20.9065 21.286 20.7195C21.5888 20.3696 21.5693 19.8263 21.2335 19.5056L16.5333 14.9878C17.3915 13.7431 17.8984 12.2139 17.8984 10.5639C17.8984 6.39171 14.6681 3 10.6983 3ZM5.13713 10.5639C5.13713 7.34222 7.63181 4.71987 10.6983 4.71987C13.765 4.71987 16.2596 7.34055 16.2596 10.5622C16.2596 13.7838 13.765 16.4045 10.6983 16.4045H10.5607C7.55743 16.3275 5.13713 13.7372 5.13713 10.5639Z" fill="#E1E2DE"/>
</svg>
