<svg width="142" height="21" viewBox="0 0 142 21" fill="none" xmlns="http://www.w3.org/2000/svg">
<path fill-rule="evenodd" clip-rule="evenodd" d="M62.6546 0.0278902C62.4387 0.0437647 61.7324 0.0939821 61.0849 0.139405C48.0806 1.05266 30.7104 5.135 18.914 10.0504C8.82556 14.2542 -0.136399 19.3251 0.00157242 20.7515C0.0330438 21.0764 0.349091 21.0816 1.34848 20.7737C2.2464 20.497 2.18691 20.4583 1.17951 20.6639C0.176352 20.8686 0.138916 20.8287 0.771482 20.2285C3.41068 17.7244 16.5009 11.6004 25.4739 8.67188C40.0883 3.90221 54.5443 1.26712 66.304 1.22909C70.803 1.21455 71.9547 1.4085 71.9547 2.18069C71.9547 3.22786 67.41 6.1516 64.4597 7.00246C55.5289 9.57798 43.9297 14.0305 42.6481 15.3751C42.2214 15.8229 42.432 16.4202 43.0166 16.4202C44.167 16.4202 53.1369 13.0722 60.4178 9.9251C62.9537 8.82905 63.3034 8.72524 70.6205 6.89708C81.7222 4.12336 87.4546 3.20987 94.636 3.07006C97.5905 3.01261 97.8863 3.07587 97.4605 3.67463C96.6024 4.8814 90.2182 7.97521 79.2143 12.5168C77.2704 13.3191 76.789 13.8702 77.4523 14.5344L77.6917 14.7741L78.5314 14.7329C79.167 14.7018 79.8838 14.5754 81.4783 14.2136C86.8953 12.9842 97.159 10.9522 102.131 10.1246C110.587 8.71722 119.849 7.73473 132.935 6.85668C134.886 6.72583 136.421 6.57817 137.487 6.4188C138.372 6.28661 139.75 6.11647 140.548 6.0408L142 5.90311L141.019 5.84582C140.479 5.81431 139.332 5.69297 138.468 5.57619C134.577 5.04989 128.242 5.38727 114.374 6.85927C105.436 7.80805 94.7562 9.63999 85.0367 11.8915C84.3973 12.0396 83.8146 12.1596 83.7418 12.1582C83.6689 12.1567 84.4569 11.7917 85.4929 11.3469C97.2901 6.28181 99.9707 4.51409 98.8523 2.53669C98.4017 1.74029 97.6357 1.55467 94.793 1.55333C87.9424 1.55003 80.7971 2.66086 71.0562 5.24353C69.6403 5.61894 69.6443 5.62083 70.5507 4.9992C73.9532 2.66565 73.7908 0.8246 70.1243 0.164079C69.5105 0.0535858 63.7362 -0.0517967 62.6546 0.0278902Z" fill="#20211E"/>
</svg>
