<svg width="12" height="12" viewBox="0 0 12 12" fill="none" xmlns="http://www.w3.org/2000/svg">
<path d="M1 11C0.725 11 0.489667 10.9022 0.294 10.7065C0.0983332 10.5108 0.000333333 10.2753 0 10V5C0 4.725 0.0979999 4.48967 0.294 4.294C0.49 4.09833 0.725333 4.00033 1 4H1.5V3C1.5 2.30833 1.74383 1.71883 2.2315 1.2315C2.71917 0.744167 3.30867 0.500333 4 0.5C4.69167 0.5 5.28133 0.743833 5.769 1.2315C6.25667 1.71917 6.50033 2.30867 6.5 3V4H7C7.275 4 7.5105 4.098 7.7065 4.294C7.9025 4.49 8.00033 4.72533 8 5V10C8 10.275 7.90217 10.5105 7.7065 10.7065C7.51083 10.9025 7.27533 11.0003 7 11H1ZM4 8.5C4.275 8.5 4.5105 8.40217 4.7065 8.2065C4.9025 8.01083 5.00033 7.77533 5 7.5C5 7.225 4.90217 6.98967 4.7065 6.794C4.51083 6.59833 4.27533 6.50033 4 6.5C3.725 6.5 3.48967 6.598 3.294 6.794C3.09833 6.99 3.00033 7.22533 3 7.5C3 7.775 3.098 8.0105 3.294 8.2065C3.49 8.4025 3.72533 8.50033 4 8.5ZM2.5 4H5.5V3C5.5 2.58333 5.35417 2.22917 5.0625 1.9375C4.77083 1.64583 4.41667 1.5 4 1.5C3.58333 1.5 3.22917 1.64583 2.9375 1.9375C2.64583 2.22917 2.5 2.58333 2.5 3V4Z" fill="#F7744C"/>
</svg>
