<svg width="255" height="23" viewBox="0 0 255 23" fill="none" xmlns="http://www.w3.org/2000/svg">
<path d="M14.292 17.252C13.944 17.252 13.68 17.144 13.5 16.928C13.332 16.712 13.248 16.418 13.248 16.046C13.248 15.746 13.26 15.488 13.284 15.272C13.308 15.056 13.356 14.828 13.428 14.588C13.5 14.336 13.59 14.03 13.698 13.67C13.818 13.298 13.968 12.824 14.148 12.248C14.256 11.912 14.388 11.474 14.544 10.934C14.712 10.382 14.88 9.782 15.048 9.134C15.216 8.474 15.354 7.814 15.462 7.154C15.582 6.482 15.642 5.864 15.642 5.3C15.642 4.916 15.558 4.562 15.39 4.238C14.274 5.342 13.218 6.782 12.222 8.558C11.238 10.334 10.362 12.398 9.594 14.75C9.366 15.338 9.102 15.734 8.802 15.938C8.502 16.13 8.214 16.226 7.938 16.226C7.854 16.226 7.728 16.178 7.56 16.082C7.392 15.974 7.236 15.782 7.092 15.506C6.948 15.23 6.876 14.84 6.876 14.336C6.876 14.216 6.906 14.066 6.966 13.886C7.026 13.694 7.116 13.49 7.236 13.274C7.344 12.65 7.422 11.984 7.47 11.276C7.53 10.556 7.566 9.842 7.578 9.134C7.602 8.414 7.614 7.742 7.614 7.118C7.614 6.638 7.578 6.218 7.506 5.858C6.918 6.602 6.36 7.502 5.832 8.558C5.304 9.614 4.824 10.736 4.392 11.924C3.972 13.112 3.624 14.276 3.348 15.416C3.276 15.692 3.192 15.95 3.096 16.19C3 16.418 2.856 16.604 2.664 16.748C2.484 16.88 2.22 16.946 1.872 16.946C1.488 16.946 1.2 16.79 1.008 16.478C0.816 16.166 0.72 15.752 0.72 15.236C0.72 14.84 0.804 14.33 0.972 13.706C1.14 13.07 1.368 12.38 1.656 11.636C1.944 10.88 2.274 10.112 2.646 9.332C3.03 8.54 3.432 7.778 3.852 7.046C4.272 6.314 4.698 5.66 5.13 5.084C5.574 4.496 5.994 4.034 6.39 3.698C6.798 3.35 7.17 3.176 7.506 3.176C7.518 3.176 7.536 3.176 7.56 3.176C7.824 3.176 8.064 3.2 8.28 3.248C8.508 3.284 8.706 3.41 8.874 3.626C9.054 3.83 9.21 4.172 9.342 4.652C9.474 5.132 9.588 5.81 9.684 6.686C9.708 6.902 9.726 7.16 9.738 7.46C9.75 7.748 9.756 8.048 9.756 8.36C10.152 7.472 10.584 6.638 11.052 5.858C11.532 5.078 12.024 4.388 12.528 3.788C13.044 3.188 13.554 2.72 14.058 2.384C14.562 2.048 15.03 1.88 15.462 1.88C15.966 1.88 16.434 2.006 16.866 2.258C17.298 2.498 17.646 2.906 17.91 3.482C18.174 4.058 18.306 4.844 18.306 5.84C18.306 6.896 18.21 7.922 18.018 8.918C17.826 9.902 17.586 10.832 17.298 11.708C17.01 12.584 16.722 13.388 16.434 14.12C16.146 14.84 15.906 15.464 15.714 15.992C15.558 16.364 15.378 16.67 15.174 16.91C14.97 17.138 14.676 17.252 14.292 17.252ZM23.3027 21.95C22.6307 21.95 22.0187 21.908 21.4667 21.824C20.9147 21.752 20.3747 21.632 19.8467 21.464C19.3187 21.296 18.7487 21.074 18.1367 20.798C17.8847 20.678 17.6747 20.552 17.5067 20.42C17.3387 20.288 17.2547 20.09 17.2547 19.826C17.2547 19.442 17.3747 19.148 17.6147 18.944C17.8427 18.752 18.1607 18.656 18.5687 18.656C18.7847 18.656 19.0607 18.728 19.3967 18.872C19.7327 19.028 20.1167 19.202 20.5487 19.394C20.9927 19.598 21.4847 19.772 22.0247 19.916C22.5647 20.072 23.1467 20.15 23.7707 20.15C24.4067 20.15 25.0007 19.886 25.5527 19.358C26.1047 18.83 26.5487 18.086 26.8847 17.126C27.2327 16.178 27.4067 15.056 27.4067 13.76C27.4067 13.46 27.4007 13.136 27.3887 12.788C27.3767 12.428 27.3647 12.05 27.3527 11.654C26.9207 12.47 26.4527 13.232 25.9487 13.94C25.4447 14.648 24.9227 15.224 24.3827 15.668C23.8547 16.1 23.3207 16.316 22.7807 16.316C22.1207 16.316 21.6407 16.16 21.3407 15.848C21.0527 15.524 20.9087 15.014 20.9087 14.318C20.9087 13.73 20.9507 13.088 21.0347 12.392C21.1307 11.684 21.2567 10.97 21.4127 10.25C21.5687 9.53 21.7487 8.846 21.9527 8.198C22.1687 7.538 22.3967 6.968 22.6367 6.488C22.8167 6.14 23.0927 5.966 23.4647 5.966C23.7047 5.966 23.9447 6.08 24.1847 6.308C24.4367 6.536 24.5627 6.842 24.5627 7.226C24.5627 7.442 24.5087 7.754 24.4007 8.162C24.2927 8.57 24.1607 9.032 24.0047 9.548C23.8607 10.052 23.7107 10.586 23.5547 11.15C23.3987 11.702 23.2667 12.248 23.1587 12.788C23.0507 13.316 22.9967 13.796 22.9967 14.228C22.9967 14.276 23.0327 14.3 23.1047 14.3C23.2487 14.3 23.4407 14.18 23.6807 13.94C23.9327 13.688 24.2087 13.364 24.5087 12.968C24.8207 12.56 25.1327 12.116 25.4447 11.636C25.7687 11.144 26.0807 10.658 26.3807 10.178C26.6807 9.698 26.9507 9.26 27.1907 8.864C27.1547 8.672 27.1307 8.504 27.1187 8.36C27.1187 8.204 27.1187 8.072 27.1187 7.964C27.1187 7.472 27.2027 7.064 27.3707 6.74C27.5507 6.416 27.8987 6.254 28.4147 6.254C28.7507 6.254 29.0087 6.38 29.1887 6.632C29.3687 6.872 29.4587 7.214 29.4587 7.658C29.4587 7.85 29.4287 8.072 29.3687 8.324C29.3087 8.564 29.1887 8.948 29.0087 9.476L29.2067 8.918C29.3147 9.998 29.4047 10.958 29.4767 11.798C29.5607 12.638 29.6027 13.472 29.6027 14.3C29.6027 15.86 29.3387 17.21 28.8107 18.35C28.2947 19.502 27.5627 20.39 26.6147 21.014C25.6787 21.638 24.5747 21.95 23.3027 21.95ZM43.7078 17.144C43.3958 17.144 43.1678 16.994 43.0238 16.694C42.8798 16.394 42.8078 15.86 42.8078 15.092C42.8078 14.012 42.8738 12.872 43.0058 11.672C43.1498 10.46 43.3358 9.152 43.5638 7.748C43.7678 6.632 44.2538 5.774 45.0218 5.174C45.8018 4.574 46.8458 4.082 48.1538 3.698C48.9698 3.458 49.8158 3.236 50.6918 3.032C51.5678 2.828 52.3898 2.666 53.1578 2.546C53.9378 2.414 54.5798 2.348 55.0838 2.348C55.4678 2.348 55.7678 2.408 55.9838 2.528C56.1998 2.648 56.3498 2.798 56.4338 2.978C56.5298 3.146 56.5778 3.302 56.5778 3.446C56.5778 3.674 56.5238 3.878 56.4158 4.058C56.3078 4.238 56.0738 4.376 55.7138 4.472C55.5578 4.52 55.2278 4.604 54.7238 4.724C54.2318 4.832 53.6258 4.964 52.9058 5.12C52.1978 5.276 51.4478 5.444 50.6558 5.624C49.8638 5.792 49.0958 5.966 48.3518 6.146C47.6198 6.362 47.0798 6.626 46.7318 6.938C46.3958 7.238 46.1738 7.676 46.0658 8.252C46.0418 8.372 46.0178 8.54 45.9938 8.756C46.4858 8.6 47.0138 8.474 47.5778 8.378C48.1418 8.282 48.6638 8.21 49.1438 8.162C49.6238 8.114 49.9778 8.09 50.2058 8.09C50.4458 8.09 50.6978 8.132 50.9618 8.216C51.2378 8.288 51.4718 8.402 51.6638 8.558C51.8678 8.702 51.9698 8.888 51.9698 9.116C51.9698 9.332 51.8858 9.53 51.7178 9.71C51.5498 9.878 51.2078 10.04 50.6918 10.196C50.5838 10.232 50.3378 10.28 49.9538 10.34C49.5818 10.4 49.1378 10.478 48.6218 10.574C48.1178 10.658 47.6018 10.754 47.0738 10.862C46.5578 10.97 46.1018 11.084 45.7058 11.204C45.6218 11.852 45.5438 12.5 45.4718 13.148C45.3998 13.796 45.3398 14.36 45.2918 14.84C45.2438 15.308 45.2078 15.602 45.1838 15.722C45.1118 16.166 44.9378 16.514 44.6618 16.766C44.3858 17.018 44.0678 17.144 43.7078 17.144ZM54.771 17.684C54.387 17.684 54.039 17.576 53.727 17.36C53.415 17.156 53.169 16.886 52.989 16.55C52.809 16.202 52.719 15.83 52.719 15.434C52.719 14.69 52.881 13.964 53.205 13.256C53.541 12.548 53.979 11.876 54.519 11.24C55.059 10.604 55.647 10.022 56.283 9.494C56.931 8.954 57.573 8.492 58.209 8.108C58.857 7.724 59.445 7.424 59.973 7.208C60.513 6.992 60.933 6.884 61.233 6.884C61.581 6.884 61.863 6.962 62.079 7.118C62.307 7.262 62.421 7.49 62.421 7.802C62.421 7.898 62.397 7.976 62.349 8.036C62.505 8.072 62.631 8.162 62.727 8.306C62.823 8.45 62.871 8.666 62.871 8.954C62.871 9.074 62.841 9.386 62.781 9.89C62.721 10.394 62.655 11.006 62.583 11.726C62.523 12.446 62.493 13.196 62.493 13.976C62.493 14.096 62.511 14.204 62.547 14.3C62.583 14.384 62.661 14.426 62.781 14.426C63.261 14.426 63.747 14.33 64.239 14.138C64.743 13.934 65.229 13.688 65.697 13.4C66.177 13.1 66.609 12.806 66.993 12.518C67.389 12.218 67.719 11.972 67.983 11.78C68.259 11.576 68.439 11.474 68.523 11.474C68.931 11.474 69.135 11.678 69.135 12.086C69.135 12.194 69.003 12.422 68.739 12.77C68.487 13.106 68.139 13.496 67.695 13.94C67.251 14.372 66.753 14.804 66.201 15.236C65.661 15.656 65.097 16.004 64.509 16.28C63.933 16.556 63.375 16.694 62.835 16.694C62.175 16.694 61.671 16.538 61.323 16.226C60.987 15.914 60.747 15.494 60.603 14.966C60.471 14.426 60.399 13.82 60.387 13.148C59.775 14.024 59.139 14.804 58.479 15.488C57.831 16.16 57.189 16.694 56.553 17.09C55.917 17.486 55.323 17.684 54.771 17.684ZM61.143 8.666C59.967 9.23 58.911 9.878 57.975 10.61C57.039 11.33 56.295 12.086 55.743 12.878C55.203 13.67 54.933 14.432 54.933 15.164C54.933 15.368 55.029 15.47 55.221 15.47C55.449 15.47 55.749 15.338 56.121 15.074C56.505 14.81 56.919 14.462 57.363 14.03C57.807 13.586 58.251 13.094 58.695 12.554C59.139 12.002 59.553 11.438 59.937 10.862C60.321 10.286 60.627 9.734 60.855 9.206C60.939 9.014 61.035 8.834 61.143 8.666ZM83.5057 16.586C83.4337 17.234 83.0497 17.558 82.3537 17.558C81.9937 17.558 81.7057 17.45 81.4897 17.234C81.2857 17.018 81.1837 16.706 81.1837 16.298C81.1837 15.602 81.2137 14.858 81.2737 14.066C81.3457 13.262 81.4297 12.452 81.5257 11.636C81.6337 10.82 81.7357 10.04 81.8317 9.296C81.3997 9.92 80.9437 10.562 80.4637 11.222C79.9837 11.882 79.5037 12.524 79.0237 13.148C78.5437 13.772 78.0817 14.336 77.6377 14.84C77.2057 15.332 76.8097 15.728 76.4497 16.028C76.0897 16.316 75.7897 16.46 75.5497 16.46C74.9737 16.46 74.4757 16.25 74.0557 15.83C73.6357 15.398 73.4257 14.852 73.4257 14.192C73.4257 13.964 73.4497 13.658 73.4977 13.274C73.5457 12.878 73.6057 12.458 73.6777 12.014C73.7497 11.57 73.8097 11.15 73.8577 10.754C73.9057 10.358 73.9297 10.046 73.9297 9.818C73.9297 9.818 73.9297 9.806 73.9297 9.782C73.9417 9.722 73.9297 9.692 73.8937 9.692C73.8457 9.692 73.7137 9.854 73.4977 10.178C73.2817 10.49 73.0177 10.898 72.7057 11.402C72.3937 11.906 72.0637 12.434 71.7157 12.986C71.3797 13.538 71.0617 14.054 70.7617 14.534C70.4737 15.014 70.2337 15.386 70.0417 15.65C69.7777 16.058 69.5317 16.316 69.3037 16.424C69.0757 16.532 68.8117 16.586 68.5117 16.586C68.0917 16.586 67.7617 16.448 67.5217 16.172C67.2937 15.884 67.1797 15.482 67.1797 14.966C67.1797 14.75 67.2157 14.414 67.2877 13.958C67.3717 13.502 67.4737 12.998 67.5937 12.446C67.7137 11.882 67.8337 11.336 67.9537 10.808C68.0857 10.268 68.1997 9.812 68.2957 9.44C68.4037 8.948 68.5537 8.606 68.7457 8.414C68.9497 8.21 69.2077 8.108 69.5197 8.108C70.2517 8.108 70.6177 8.468 70.6177 9.188C70.6177 9.32 70.5757 9.536 70.4917 9.836C70.4077 10.136 70.3057 10.484 70.1857 10.88C70.0657 11.276 69.9397 11.684 69.8077 12.104C69.6757 12.512 69.5677 12.896 69.4837 13.256C69.7717 12.752 70.0837 12.212 70.4197 11.636C70.7557 11.06 71.0977 10.496 71.4457 9.944C71.8057 9.392 72.1597 8.888 72.5077 8.432C72.8677 7.976 73.2217 7.616 73.5697 7.352C73.9177 7.076 74.2477 6.938 74.5597 6.938C74.8717 6.938 75.1777 7.052 75.4777 7.28C75.7777 7.496 76.0237 7.778 76.2157 8.126C76.4197 8.462 76.5217 8.822 76.5217 9.206C76.5217 9.566 76.4737 9.998 76.3777 10.502C76.2817 11.006 76.1737 11.534 76.0537 12.086C75.9337 12.638 75.8497 13.178 75.8017 13.706C76.2097 13.25 76.6417 12.734 77.0977 12.158C77.5537 11.57 78.0217 10.964 78.5017 10.34C78.9817 9.716 79.4497 9.11 79.9057 8.522C80.3737 7.934 80.8057 7.4 81.2017 6.92C81.6097 6.44 81.9697 6.062 82.2817 5.786C82.5937 5.498 82.8337 5.354 83.0017 5.354C83.4937 5.354 83.8777 5.486 84.1537 5.75C84.4417 6.002 84.5857 6.446 84.5857 7.082C84.5857 7.478 84.5557 7.994 84.4957 8.63C84.4477 9.266 84.3757 9.956 84.2797 10.7C84.1957 11.432 84.0997 12.176 83.9917 12.932C83.8957 13.676 83.8057 14.366 83.7217 15.002C83.6377 15.638 83.5657 16.166 83.5057 16.586ZM88.0815 17.27C87.7455 17.27 87.4455 17.156 87.1815 16.928C86.9295 16.7 86.8035 16.328 86.8035 15.812C86.8035 15.536 86.8395 15.146 86.9115 14.642C86.9955 14.138 87.1035 13.592 87.2355 13.004C87.3675 12.404 87.5115 11.81 87.6675 11.222C87.8355 10.634 87.9975 10.112 88.1535 9.656C88.3095 9.188 88.4475 8.84 88.5675 8.612C88.7235 8.336 88.8675 8.168 88.9995 8.108C89.1435 8.036 89.2815 8 89.4135 8C89.6535 8 89.8755 8.072 90.0795 8.216C90.2955 8.36 90.4035 8.678 90.4035 9.17C90.4035 9.362 90.3675 9.674 90.2955 10.106C90.2235 10.526 90.1335 11.018 90.0255 11.582C89.9175 12.146 89.7975 12.728 89.6655 13.328C89.5455 13.928 89.4255 14.498 89.3055 15.038C89.1975 15.566 89.1075 16.01 89.0355 16.37C88.9755 16.67 88.8495 16.892 88.6575 17.036C88.4775 17.192 88.2855 17.27 88.0815 17.27ZM90.1515 6.218C89.7555 6.218 89.3895 6.104 89.0535 5.876C88.7175 5.636 88.5495 5.27 88.5495 4.778C88.5495 4.37 88.6515 4.04 88.8555 3.788C89.0595 3.536 89.2995 3.356 89.5755 3.248C89.8635 3.128 90.1155 3.068 90.3315 3.068C90.5475 3.068 90.7875 3.116 91.0515 3.212C91.3155 3.296 91.5435 3.458 91.7355 3.698C91.9395 3.926 92.0415 4.256 92.0415 4.688C92.0415 4.976 91.9395 5.24 91.7355 5.48C91.5315 5.708 91.2795 5.888 90.9795 6.02C90.6915 6.152 90.4155 6.218 90.1515 6.218ZM96.5928 17.9C95.5128 17.9 94.6608 17.57 94.0368 16.91C93.4248 16.238 93.1188 15.284 93.1188 14.048C93.1188 13.376 93.2088 12.59 93.3888 11.69C93.5688 10.778 93.8028 9.818 94.0908 8.81C94.3908 7.79 94.7088 6.782 95.0448 5.786C95.3928 4.79 95.7348 3.866 96.0708 3.014C96.4068 2.162 96.7008 1.448 96.9528 0.872C97.1688 0.427999 97.4748 0.205999 97.8708 0.205999C98.1228 0.205999 98.3268 0.284 98.4828 0.44C98.6508 0.595999 98.7348 0.847999 98.7348 1.196C98.7348 1.364 98.6508 1.73 98.4828 2.294C98.3148 2.858 98.0928 3.554 97.8168 4.382C97.5528 5.198 97.2648 6.08 96.9528 7.028C96.6528 7.976 96.3648 8.93 96.0888 9.89C95.8248 10.85 95.6088 11.756 95.4408 12.608C95.2728 13.448 95.1888 14.162 95.1888 14.75C95.1888 14.99 95.2548 15.182 95.3868 15.326C95.5308 15.47 95.7168 15.542 95.9448 15.542C96.4368 15.542 96.9408 15.452 97.4568 15.272C97.9848 15.092 98.5008 14.864 99.0048 14.588C99.5208 14.312 100.007 14.018 100.463 13.706C100.919 13.394 101.327 13.1 101.687 12.824C102.059 12.536 102.359 12.308 102.587 12.14C102.887 11.912 103.091 11.798 103.199 11.798C103.607 11.798 103.811 11.996 103.811 12.392C103.811 12.488 103.691 12.686 103.451 12.986C103.247 13.25 102.959 13.586 102.587 13.994C102.215 14.402 101.783 14.834 101.291 15.29C100.811 15.734 100.295 16.154 99.7428 16.55C99.2028 16.946 98.6628 17.27 98.1228 17.522C97.5828 17.774 97.0728 17.9 96.5928 17.9ZM105.937 21.95C105.265 21.95 104.653 21.908 104.101 21.824C103.549 21.752 103.009 21.632 102.481 21.464C101.953 21.296 101.383 21.074 100.771 20.798C100.519 20.678 100.309 20.552 100.141 20.42C99.9735 20.288 99.8895 20.09 99.8895 19.826C99.8895 19.442 100.009 19.148 100.249 18.944C100.477 18.752 100.795 18.656 101.203 18.656C101.419 18.656 101.695 18.728 102.031 18.872C102.367 19.028 102.751 19.202 103.183 19.394C103.627 19.598 104.119 19.772 104.659 19.916C105.199 20.072 105.781 20.15 106.405 20.15C107.041 20.15 107.635 19.886 108.187 19.358C108.739 18.83 109.183 18.086 109.519 17.126C109.867 16.178 110.041 15.056 110.041 13.76C110.041 13.46 110.035 13.136 110.023 12.788C110.011 12.428 109.999 12.05 109.987 11.654C109.555 12.47 109.087 13.232 108.583 13.94C108.079 14.648 107.557 15.224 107.017 15.668C106.489 16.1 105.955 16.316 105.415 16.316C104.755 16.316 104.275 16.16 103.975 15.848C103.687 15.524 103.543 15.014 103.543 14.318C103.543 13.73 103.585 13.088 103.669 12.392C103.765 11.684 103.891 10.97 104.047 10.25C104.203 9.53 104.383 8.846 104.587 8.198C104.803 7.538 105.031 6.968 105.271 6.488C105.451 6.14 105.727 5.966 106.099 5.966C106.339 5.966 106.579 6.08 106.819 6.308C107.071 6.536 107.197 6.842 107.197 7.226C107.197 7.442 107.143 7.754 107.035 8.162C106.927 8.57 106.795 9.032 106.639 9.548C106.495 10.052 106.345 10.586 106.189 11.15C106.033 11.702 105.901 12.248 105.793 12.788C105.685 13.316 105.631 13.796 105.631 14.228C105.631 14.276 105.667 14.3 105.739 14.3C105.883 14.3 106.075 14.18 106.315 13.94C106.567 13.688 106.843 13.364 107.143 12.968C107.455 12.56 107.767 12.116 108.079 11.636C108.403 11.144 108.715 10.658 109.015 10.178C109.315 9.698 109.585 9.26 109.825 8.864C109.789 8.672 109.765 8.504 109.753 8.36C109.753 8.204 109.753 8.072 109.753 7.964C109.753 7.472 109.837 7.064 110.005 6.74C110.185 6.416 110.533 6.254 111.049 6.254C111.385 6.254 111.643 6.38 111.823 6.632C112.003 6.872 112.093 7.214 112.093 7.658C112.093 7.85 112.063 8.072 112.003 8.324C111.943 8.564 111.823 8.948 111.643 9.476L111.841 8.918C111.949 9.998 112.039 10.958 112.111 11.798C112.195 12.638 112.237 13.472 112.237 14.3C112.237 15.86 111.973 17.21 111.445 18.35C110.929 19.502 110.197 20.39 109.249 21.014C108.313 21.638 107.209 21.95 105.937 21.95ZM126.559 16.91C126.115 16.91 125.785 16.736 125.569 16.388C125.353 16.028 125.245 15.38 125.245 14.444C125.245 13.244 125.353 12.062 125.569 10.898C125.797 9.734 126.115 8.642 126.523 7.622C126.943 6.602 127.447 5.708 128.035 4.94C128.635 4.16 129.313 3.554 130.069 3.122C130.825 2.678 131.647 2.456 132.535 2.456C133.855 2.456 134.833 2.81 135.469 3.518C136.117 4.214 136.441 5.24 136.441 6.596C136.441 7.316 136.297 7.958 136.009 8.522C135.721 9.074 135.343 9.512 134.875 9.836C134.419 10.148 133.927 10.304 133.399 10.304C133.099 10.304 132.781 10.25 132.445 10.142C133.093 10.982 133.741 11.714 134.389 12.338C135.049 12.962 135.703 13.538 136.351 14.066C137.011 14.582 137.671 15.11 138.331 15.65C138.679 15.926 138.877 16.22 138.925 16.532C138.973 16.844 138.889 17.108 138.673 17.324C138.469 17.552 138.151 17.666 137.719 17.666C137.383 17.666 136.957 17.516 136.441 17.216C135.925 16.928 135.367 16.538 134.767 16.046C134.167 15.542 133.567 14.984 132.967 14.372C132.379 13.76 131.839 13.136 131.347 12.5C130.867 11.864 130.477 11.258 130.177 10.682C129.889 10.106 129.745 9.614 129.745 9.206C129.745 8.822 129.847 8.528 130.051 8.324C130.255 8.108 130.519 8 130.843 8C131.107 8 131.347 8.036 131.563 8.108C131.791 8.18 132.031 8.216 132.283 8.216C132.547 8.216 132.823 8.144 133.111 8C133.411 7.856 133.663 7.634 133.867 7.334C134.071 7.022 134.173 6.626 134.173 6.146C134.173 5.618 134.023 5.264 133.723 5.084C133.435 4.904 133.045 4.814 132.553 4.814C131.869 4.814 131.251 5.054 130.699 5.534C130.147 6.014 129.667 6.692 129.259 7.568C128.851 8.444 128.521 9.476 128.269 10.664C128.029 11.852 127.867 13.148 127.783 14.552C127.735 15.464 127.615 16.088 127.423 16.424C127.231 16.748 126.943 16.91 126.559 16.91ZM143.695 17.612C142.951 17.612 142.351 17.354 141.895 16.838C141.439 16.31 141.211 15.464 141.211 14.3C141.211 13.556 141.295 12.812 141.463 12.068C141.643 11.312 141.889 10.598 142.201 9.926C142.525 9.242 142.897 8.636 143.317 8.108C143.749 7.58 144.223 7.166 144.739 6.866C145.255 6.554 145.789 6.398 146.341 6.398C147.277 6.398 148.009 6.65 148.537 7.154C149.065 7.658 149.329 8.3 149.329 9.08C149.329 9.68 149.161 10.226 148.825 10.718C148.501 11.198 148.057 11.63 147.493 12.014C146.929 12.398 146.299 12.746 145.603 13.058C144.907 13.37 144.193 13.652 143.461 13.904C143.401 14.336 143.371 14.72 143.371 15.056C143.371 15.26 143.485 15.362 143.713 15.362C144.253 15.362 144.829 15.278 145.441 15.11C146.065 14.93 146.695 14.702 147.331 14.426C147.967 14.138 148.579 13.844 149.167 13.544C149.755 13.232 150.289 12.938 150.769 12.662C151.261 12.374 151.663 12.146 151.975 11.978C152.299 11.798 152.509 11.708 152.605 11.708C152.869 11.708 153.061 11.786 153.181 11.942C153.301 12.098 153.361 12.266 153.361 12.446C153.361 12.53 153.199 12.716 152.875 13.004C152.563 13.292 152.131 13.634 151.579 14.03C151.039 14.414 150.427 14.816 149.743 15.236C149.071 15.644 148.369 16.034 147.637 16.406C146.917 16.766 146.215 17.054 145.531 17.27C144.859 17.498 144.247 17.612 143.695 17.612ZM143.767 12.302C144.259 12.014 144.745 11.714 145.225 11.402C145.717 11.078 146.125 10.718 146.449 10.322C146.773 9.914 146.935 9.44 146.935 8.9C146.935 8.744 146.893 8.642 146.809 8.594C146.725 8.534 146.605 8.504 146.449 8.504C146.029 8.504 145.645 8.69 145.297 9.062C144.961 9.434 144.661 9.914 144.397 10.502C144.145 11.078 143.935 11.678 143.767 12.302ZM155.172 17.504C154.5 17.504 153.918 17.348 153.426 17.036C152.934 16.736 152.556 16.346 152.292 15.866C152.028 15.374 151.896 14.87 151.896 14.354C151.896 13.49 152.028 12.692 152.292 11.96C152.556 11.216 152.904 10.544 153.336 9.944C153.768 9.332 154.236 8.792 154.74 8.324C155.256 7.856 155.754 7.466 156.234 7.154C156.726 6.83 157.164 6.59 157.548 6.434C157.932 6.266 158.214 6.182 158.394 6.182C158.718 6.182 158.946 6.254 159.078 6.398C159.222 6.53 159.294 6.752 159.294 7.064C159.294 7.244 159.162 7.46 158.898 7.712C158.646 7.964 158.31 8.252 157.89 8.576C157.482 8.9 157.05 9.266 156.594 9.674C156.138 10.082 155.7 10.538 155.28 11.042C154.872 11.546 154.536 12.098 154.272 12.698C154.02 13.298 153.894 13.952 153.894 14.66C153.894 14.924 153.942 15.128 154.038 15.272C154.146 15.416 154.32 15.488 154.56 15.488C155.244 15.488 155.976 15.368 156.756 15.128C157.548 14.876 158.334 14.564 159.114 14.192C159.906 13.808 160.65 13.412 161.346 13.004C162.054 12.596 162.66 12.23 163.164 11.906C163.368 11.762 163.542 11.648 163.686 11.564C163.83 11.48 163.932 11.438 163.992 11.438C164.352 11.438 164.532 11.624 164.532 11.996C164.532 12.188 164.388 12.446 164.1 12.77C163.764 13.19 163.308 13.622 162.732 14.066C162.168 14.51 161.538 14.936 160.842 15.344C160.158 15.752 159.456 16.118 158.736 16.442C158.028 16.766 157.362 17.024 156.738 17.216C156.114 17.408 155.592 17.504 155.172 17.504ZM163.949 17.27C163.613 17.27 163.313 17.156 163.049 16.928C162.797 16.7 162.671 16.328 162.671 15.812C162.671 15.536 162.707 15.146 162.779 14.642C162.863 14.138 162.971 13.592 163.103 13.004C163.235 12.404 163.379 11.81 163.535 11.222C163.703 10.634 163.865 10.112 164.021 9.656C164.177 9.188 164.315 8.84 164.435 8.612C164.591 8.336 164.735 8.168 164.867 8.108C165.011 8.036 165.149 8 165.281 8C165.521 8 165.743 8.072 165.947 8.216C166.163 8.36 166.271 8.678 166.271 9.17C166.271 9.362 166.235 9.674 166.163 10.106C166.091 10.526 166.001 11.018 165.893 11.582C165.785 12.146 165.665 12.728 165.533 13.328C165.413 13.928 165.293 14.498 165.173 15.038C165.065 15.566 164.975 16.01 164.903 16.37C164.843 16.67 164.717 16.892 164.525 17.036C164.345 17.192 164.153 17.27 163.949 17.27ZM166.019 6.218C165.623 6.218 165.257 6.104 164.921 5.876C164.585 5.636 164.417 5.27 164.417 4.778C164.417 4.37 164.519 4.04 164.723 3.788C164.927 3.536 165.167 3.356 165.443 3.248C165.731 3.128 165.983 3.068 166.199 3.068C166.415 3.068 166.655 3.116 166.919 3.212C167.183 3.296 167.411 3.458 167.603 3.698C167.807 3.926 167.909 4.256 167.909 4.688C167.909 4.976 167.807 5.24 167.603 5.48C167.399 5.708 167.147 5.888 166.847 6.02C166.559 6.152 166.283 6.218 166.019 6.218ZM168.72 22.778C168.384 22.778 168.12 22.658 167.928 22.418C167.748 22.19 167.658 21.836 167.658 21.356C167.658 20.696 167.718 19.91 167.838 18.998C167.958 18.086 168.12 17.12 168.324 16.1C168.528 15.08 168.75 14.078 168.99 13.094C169.278 11.966 169.56 10.94 169.836 10.016C170.124 9.092 170.412 8.354 170.7 7.802C171 7.238 171.3 6.956 171.6 6.956C171.876 6.956 172.116 7.058 172.32 7.262C172.536 7.454 172.644 7.742 172.644 8.126C172.644 8.402 172.572 8.798 172.428 9.314C172.284 9.818 172.104 10.448 171.888 11.204C172.296 10.532 172.716 9.872 173.148 9.224C173.592 8.576 174.042 7.988 174.498 7.46C174.954 6.932 175.398 6.512 175.83 6.2C176.262 5.888 176.67 5.732 177.054 5.732C177.51 5.732 177.912 5.864 178.26 6.128C178.62 6.392 178.902 6.752 179.106 7.208C179.31 7.664 179.412 8.18 179.412 8.756C179.412 9.824 179.22 10.862 178.836 11.87C178.452 12.866 177.918 13.76 177.234 14.552C176.562 15.344 175.776 15.974 174.876 16.442C173.976 16.898 173.004 17.126 171.96 17.126C171.66 17.126 171.384 17.096 171.132 17.036C170.892 16.988 170.67 16.928 170.466 16.856C170.322 17.624 170.184 18.41 170.052 19.214C169.932 20.03 169.806 20.888 169.674 21.788C169.53 22.448 169.212 22.778 168.72 22.778ZM177.234 7.856C176.97 7.856 176.634 8.036 176.226 8.396C175.83 8.756 175.398 9.23 174.93 9.818C174.462 10.394 173.988 11.024 173.508 11.708C173.04 12.38 172.59 13.04 172.158 13.688C171.738 14.336 171.378 14.9 171.078 15.38C171.99 15.284 172.794 15.044 173.49 14.66C174.186 14.264 174.78 13.784 175.272 13.22C175.764 12.656 176.16 12.062 176.46 11.438C176.772 10.802 177 10.184 177.144 9.584C177.288 8.984 177.36 8.462 177.36 8.018C177.36 7.91 177.318 7.856 177.234 7.856ZM183.984 17.612C183.24 17.612 182.64 17.354 182.184 16.838C181.728 16.31 181.5 15.464 181.5 14.3C181.5 13.556 181.584 12.812 181.752 12.068C181.932 11.312 182.178 10.598 182.49 9.926C182.814 9.242 183.186 8.636 183.606 8.108C184.038 7.58 184.512 7.166 185.028 6.866C185.544 6.554 186.078 6.398 186.63 6.398C187.566 6.398 188.298 6.65 188.826 7.154C189.354 7.658 189.618 8.3 189.618 9.08C189.618 9.68 189.45 10.226 189.114 10.718C188.79 11.198 188.346 11.63 187.782 12.014C187.218 12.398 186.588 12.746 185.892 13.058C185.196 13.37 184.482 13.652 183.75 13.904C183.69 14.336 183.66 14.72 183.66 15.056C183.66 15.26 183.774 15.362 184.002 15.362C184.542 15.362 185.118 15.278 185.73 15.11C186.354 14.93 186.984 14.702 187.62 14.426C188.256 14.138 188.868 13.844 189.456 13.544C190.044 13.232 190.578 12.938 191.058 12.662C191.55 12.374 191.952 12.146 192.264 11.978C192.588 11.798 192.798 11.708 192.894 11.708C193.158 11.708 193.35 11.786 193.47 11.942C193.59 12.098 193.65 12.266 193.65 12.446C193.65 12.53 193.488 12.716 193.164 13.004C192.852 13.292 192.42 13.634 191.868 14.03C191.328 14.414 190.716 14.816 190.032 15.236C189.36 15.644 188.658 16.034 187.926 16.406C187.206 16.766 186.504 17.054 185.82 17.27C185.148 17.498 184.536 17.612 183.984 17.612ZM184.056 12.302C184.548 12.014 185.034 11.714 185.514 11.402C186.006 11.078 186.414 10.718 186.738 10.322C187.062 9.914 187.224 9.44 187.224 8.9C187.224 8.744 187.182 8.642 187.098 8.594C187.014 8.534 186.894 8.504 186.738 8.504C186.318 8.504 185.934 8.69 185.586 9.062C185.25 9.434 184.95 9.914 184.686 10.502C184.434 11.078 184.224 11.678 184.056 12.302ZM204.307 17.648C203.815 17.648 203.443 17.57 203.191 17.414C202.951 17.27 202.789 17.102 202.705 16.91C202.633 16.718 202.597 16.568 202.597 16.46C202.597 16.112 202.753 15.824 203.065 15.596C203.389 15.356 203.749 15.236 204.145 15.236C204.529 15.236 205.003 15.182 205.567 15.074C206.143 14.954 206.749 14.786 207.385 14.57C208.033 14.354 208.651 14.084 209.239 13.76C209.839 13.436 210.361 13.064 210.805 12.644C211.249 12.224 211.555 11.762 211.723 11.258C211.459 11.21 211.195 11.174 210.931 11.15C210.667 11.114 210.403 11.096 210.139 11.096C209.251 11.096 208.333 11.192 207.385 11.384C206.437 11.576 205.495 11.762 204.559 11.942C204.331 11.99 204.127 11.948 203.947 11.816C203.923 12.068 203.899 12.302 203.875 12.518C203.863 12.722 203.851 12.944 203.839 13.184C203.815 13.772 203.761 14.228 203.677 14.552C203.605 14.864 203.521 15.086 203.425 15.218C203.329 15.35 203.227 15.428 203.119 15.452C203.011 15.476 202.909 15.488 202.813 15.488C202.777 15.488 202.753 15.488 202.741 15.488C202.525 15.488 202.321 15.434 202.129 15.326C201.937 15.218 201.781 14.996 201.661 14.66C201.541 14.312 201.481 13.79 201.481 13.094C201.481 10.886 201.721 9.014 202.201 7.478C202.693 5.93 203.395 4.754 204.307 3.95C205.231 3.134 206.335 2.726 207.619 2.726C208.627 2.726 209.413 3.002 209.977 3.554C210.541 4.094 210.823 4.874 210.823 5.894C210.823 6.41 210.721 6.926 210.517 7.442C210.313 7.958 210.025 8.468 209.653 8.972C209.881 8.924 210.103 8.888 210.319 8.864C210.535 8.828 210.739 8.81 210.931 8.81C212.059 8.81 212.893 9.014 213.433 9.422C213.973 9.818 214.243 10.352 214.243 11.024C214.243 11.696 214.051 12.326 213.667 12.914C213.295 13.502 212.797 14.042 212.173 14.534C211.561 15.014 210.883 15.452 210.139 15.848C209.395 16.232 208.651 16.562 207.907 16.838C207.163 17.102 206.473 17.3 205.837 17.432C205.201 17.576 204.691 17.648 204.307 17.648ZM204.163 9.962C204.235 9.926 204.313 9.902 204.397 9.89C205.477 9.71 206.305 9.464 206.881 9.152C207.457 8.84 207.853 8.45 208.069 7.982C208.285 7.514 208.393 6.956 208.393 6.308C208.393 6.14 208.369 5.96 208.321 5.768C208.273 5.576 208.177 5.414 208.033 5.282C207.901 5.138 207.697 5.066 207.421 5.066C206.509 5.066 205.795 5.48 205.279 6.308C204.775 7.124 204.403 8.342 204.163 9.962ZM219.608 17.594C218.756 17.594 218.072 17.294 217.556 16.694C217.04 16.082 216.782 15.266 216.782 14.246C216.782 13.922 216.824 13.592 216.908 13.256C217.004 12.92 217.118 12.608 217.25 12.32C217.178 12.212 217.118 12.074 217.07 11.906C217.034 11.726 217.016 11.516 217.016 11.276C217.016 10.496 217.154 9.782 217.43 9.134C217.706 8.474 218.078 7.904 218.546 7.424C219.014 6.944 219.53 6.572 220.094 6.308C220.658 6.044 221.228 5.912 221.804 5.912C222.788 5.912 223.592 6.242 224.216 6.902C224.852 7.562 225.17 8.588 225.17 9.98C225.17 10.676 225.062 11.384 224.846 12.104C224.63 12.824 224.336 13.514 223.964 14.174C223.604 14.822 223.184 15.404 222.704 15.92C222.236 16.436 221.732 16.844 221.192 17.144C220.664 17.444 220.136 17.594 219.608 17.594ZM219.32 11.51C219.38 11.642 219.41 11.798 219.41 11.978C219.41 12.158 219.374 12.344 219.302 12.536C219.23 12.728 219.158 12.986 219.086 13.31C219.014 13.622 218.978 14.072 218.978 14.66C218.978 14.816 218.996 14.948 219.032 15.056C219.08 15.152 219.182 15.2 219.338 15.2C219.746 15.2 220.13 15.068 220.49 14.804C220.862 14.54 221.192 14.192 221.48 13.76C221.78 13.328 222.032 12.848 222.236 12.32C222.452 11.78 222.614 11.234 222.722 10.682C222.842 10.118 222.902 9.596 222.902 9.116C222.902 8.804 222.842 8.588 222.722 8.468C222.602 8.348 222.392 8.288 222.092 8.288C221.684 8.288 221.264 8.42 220.832 8.684C220.412 8.936 220.058 9.284 219.77 9.728C219.482 10.16 219.338 10.652 219.338 11.204C219.338 11.312 219.332 11.414 219.32 11.51ZM230.067 17.594C229.215 17.594 228.531 17.294 228.015 16.694C227.499 16.082 227.241 15.266 227.241 14.246C227.241 13.922 227.283 13.592 227.367 13.256C227.463 12.92 227.577 12.608 227.709 12.32C227.637 12.212 227.577 12.074 227.529 11.906C227.493 11.726 227.475 11.516 227.475 11.276C227.475 10.496 227.613 9.782 227.889 9.134C228.165 8.474 228.537 7.904 229.005 7.424C229.473 6.944 229.989 6.572 230.553 6.308C231.117 6.044 231.687 5.912 232.263 5.912C233.247 5.912 234.051 6.242 234.675 6.902C235.311 7.562 235.629 8.588 235.629 9.98C235.629 10.676 235.521 11.384 235.305 12.104C235.089 12.824 234.795 13.514 234.423 14.174C234.063 14.822 233.643 15.404 233.163 15.92C232.695 16.436 232.191 16.844 231.651 17.144C231.123 17.444 230.595 17.594 230.067 17.594ZM229.779 11.51C229.839 11.642 229.869 11.798 229.869 11.978C229.869 12.158 229.833 12.344 229.761 12.536C229.689 12.728 229.617 12.986 229.545 13.31C229.473 13.622 229.437 14.072 229.437 14.66C229.437 14.816 229.455 14.948 229.491 15.056C229.539 15.152 229.641 15.2 229.797 15.2C230.205 15.2 230.589 15.068 230.949 14.804C231.321 14.54 231.651 14.192 231.939 13.76C232.239 13.328 232.491 12.848 232.695 12.32C232.911 11.78 233.073 11.234 233.181 10.682C233.301 10.118 233.361 9.596 233.361 9.116C233.361 8.804 233.301 8.588 233.181 8.468C233.061 8.348 232.851 8.288 232.551 8.288C232.143 8.288 231.723 8.42 231.291 8.684C230.871 8.936 230.517 9.284 230.229 9.728C229.941 10.16 229.797 10.652 229.797 11.204C229.797 11.312 229.791 11.414 229.779 11.51ZM247.485 18.314C246.669 18.314 245.913 18.14 245.217 17.792C244.521 17.456 243.885 17.012 243.309 16.46C242.733 15.896 242.217 15.284 241.761 14.624C241.317 13.952 240.939 13.292 240.627 12.644C240.483 13.304 240.351 13.868 240.231 14.336C240.123 14.804 240.033 15.194 239.961 15.506C239.901 15.746 239.835 15.98 239.763 16.208C239.703 16.436 239.607 16.622 239.475 16.766C239.343 16.91 239.157 16.982 238.917 16.982C238.401 16.982 238.071 16.808 237.927 16.46C237.783 16.1 237.711 15.644 237.711 15.092C237.711 14.6 237.789 13.952 237.945 13.148C238.113 12.344 238.335 11.444 238.611 10.448C238.887 9.452 239.205 8.426 239.565 7.37C239.937 6.302 240.333 5.264 240.753 4.256C241.173 3.236 241.593 2.312 242.013 1.484C242.277 0.979999 242.511 0.661999 242.715 0.53C242.919 0.385999 243.159 0.313999 243.435 0.313999C243.711 0.313999 243.921 0.385999 244.065 0.53C244.209 0.673999 244.281 0.865999 244.281 1.106C244.281 1.262 244.245 1.418 244.173 1.574C244.101 1.73 244.023 1.922 243.939 2.15C243.663 2.762 243.375 3.476 243.075 4.292C242.775 5.096 242.487 5.93 242.211 6.794C241.935 7.646 241.689 8.456 241.473 9.224C242.061 8.876 242.715 8.54 243.435 8.216C244.155 7.88 244.881 7.58 245.613 7.316C246.357 7.04 247.053 6.824 247.701 6.668C248.349 6.512 248.895 6.434 249.339 6.434C249.687 6.434 249.951 6.536 250.131 6.74C250.311 6.944 250.401 7.166 250.401 7.406C250.401 7.586 250.347 7.766 250.239 7.946C250.131 8.126 249.903 8.282 249.555 8.414C248.403 8.798 247.257 9.188 246.117 9.584C244.989 9.98 243.735 10.448 242.355 10.988C242.643 11.552 242.979 12.134 243.363 12.734C243.747 13.322 244.161 13.874 244.605 14.39C245.049 14.894 245.505 15.308 245.973 15.632C246.441 15.944 246.903 16.1 247.359 16.1C248.031 16.1 248.679 15.968 249.303 15.704C249.927 15.428 250.503 15.098 251.031 14.714C251.559 14.318 252.021 13.934 252.417 13.562C252.825 13.19 253.143 12.902 253.371 12.698C253.503 12.566 253.629 12.47 253.749 12.41C253.881 12.35 254.043 12.32 254.235 12.32C254.463 12.32 254.637 12.392 254.757 12.536C254.889 12.668 254.949 12.842 254.937 13.058C254.925 13.262 254.823 13.466 254.631 13.67C254.475 13.838 254.229 14.108 253.893 14.48C253.569 14.84 253.173 15.242 252.705 15.686C252.249 16.118 251.739 16.538 251.175 16.946C250.623 17.342 250.035 17.666 249.411 17.918C248.787 18.182 248.145 18.314 247.485 18.314Z" fill="#20211E"/>
</svg>
