<svg width="114" height="46" viewBox="0 0 114 46" fill="none" xmlns="http://www.w3.org/2000/svg">
<path d="M113.5 23C113.5 25.9955 111.998 28.8986 109.176 31.5909C106.352 34.2843 102.24 36.7329 97.118 38.7998C86.876 42.9325 72.6923 45.5 57 45.5C41.3077 45.5 27.1241 42.9325 16.882 38.7998C11.7597 36.7329 7.64775 34.2843 4.82448 31.5909C2.00243 28.8986 0.5 25.9955 0.5 23C0.5 20.0045 2.00243 17.1014 4.82448 14.4091C7.64775 11.7157 11.7597 9.26713 16.882 7.20022C27.1241 3.06747 41.3077 0.5 57 0.5C72.6923 0.5 86.876 3.06747 97.118 7.20022C102.24 9.26713 106.352 11.7157 109.176 14.4091C111.998 17.1014 113.5 20.0045 113.5 23Z" fill="#F5F6F2" stroke="#20211E"/>
<rect width="72" height="26" transform="translate(21 11)" fill="#F5F6F2"/>
<path d="M28.3848 23H24.2832V22.6309H25.377V15.166H24.2832V14.7969H28.8496C29.5788 14.7969 30.1986 14.9701 30.709 15.3164C31.3105 15.7266 31.6113 16.2689 31.6113 16.9434C31.6113 17.1439 31.584 17.3398 31.5293 17.5312C31.3105 18.306 30.7227 18.8255 29.7656 19.0898L31.8711 22.6445H32.0488C32.0944 22.6445 32.14 22.6491 32.1855 22.6582C32.3314 22.6855 32.4043 22.7995 32.4043 23L29.998 23.0137L27.9609 19.2539H27.291V22.6309H28.3848V23ZM28.0293 15.166H27.291V18.8438H28.1387C28.4121 18.8438 28.6536 18.7754 28.8633 18.6387C29.3372 18.3379 29.5742 17.7956 29.5742 17.0117C29.5742 16.7565 29.5423 16.5104 29.4785 16.2734C29.2598 15.5352 28.7767 15.166 28.0293 15.166ZM35.877 17.2715C35.1478 17.2988 34.7513 18.069 34.6875 19.582L35.5625 19.623C35.9271 19.6413 36.2005 19.6185 36.3828 19.5547C36.638 19.4544 36.7656 19.1901 36.7656 18.7617C36.7565 17.7865 36.4603 17.2897 35.877 17.2715ZM38.4336 21.5918C38.3789 21.7376 38.306 21.8789 38.2148 22.0156C37.75 22.763 36.9844 23.1367 35.918 23.1367C35.3164 23.1367 34.7786 23.0137 34.3047 22.7676C33.3112 22.248 32.8145 21.3275 32.8145 20.0059C32.8145 19.1947 33.0332 18.5156 33.4707 17.9688C34.0449 17.2669 34.847 16.916 35.877 16.916C36.4421 16.916 36.9479 17.0117 37.3945 17.2031C38.1875 17.5586 38.584 18.1237 38.584 18.8984C38.584 19.0534 38.5566 19.1947 38.502 19.3223C38.265 19.8327 37.4128 20.0651 35.9453 20.0195L34.6875 19.9785C34.6966 20.5072 34.7422 20.9629 34.8242 21.3457C35.0339 22.2754 35.5033 22.7402 36.2324 22.7402C36.4603 22.7402 36.6836 22.6992 36.9023 22.6172C37.4492 22.4167 37.8503 22.0384 38.1055 21.4824L38.4336 21.5918ZM39.3223 20.0469C39.3223 19.1536 39.5911 18.4245 40.1289 17.8594C40.7305 17.2305 41.5143 16.916 42.4805 16.916C43.1914 16.916 43.7839 17.0573 44.2578 17.3398C44.7409 17.6406 44.9824 17.9915 44.9824 18.3926C44.9824 18.4655 44.9733 18.5384 44.9551 18.6113C44.8457 18.9577 44.5586 19.1309 44.0938 19.1309C43.875 19.1309 43.7018 19.0853 43.5742 18.9941C43.4102 18.8757 43.3008 18.6068 43.2461 18.1875C43.2188 18.0143 43.196 17.8913 43.1777 17.8184C43.0866 17.4447 42.8405 17.2578 42.4395 17.2578C42.2389 17.2578 42.0658 17.2988 41.9199 17.3809C41.4368 17.6725 41.1953 18.584 41.1953 20.1152C41.1953 20.8809 41.2728 21.4733 41.4277 21.8926C41.6374 22.4577 42.0566 22.7402 42.6855 22.7402C42.9225 22.7402 43.1595 22.7038 43.3965 22.6309C44.0072 22.4395 44.4401 22.0703 44.6953 21.5234L45.0508 21.6191C44.9596 21.8561 44.8275 22.0749 44.6543 22.2754C44.1439 22.8496 43.4147 23.1367 42.4668 23.1367C41.8561 23.1367 41.3138 23.0228 40.8398 22.7949C39.8281 22.2936 39.3223 21.3776 39.3223 20.0469ZM48.4961 22.6445C48.5508 22.6445 48.6009 22.6491 48.6465 22.6582C48.765 22.6764 48.8242 22.7904 48.8242 23H45.4609V22.6445C45.5794 22.6445 45.6842 22.6354 45.7754 22.6172C46.0944 22.5625 46.2539 22.3346 46.2539 21.9336V17.4766H45.4609V17.1211H47.9902V22.6445H48.4961ZM48.1133 15.3301C48.1133 15.5033 48.0677 15.6673 47.9766 15.8223C47.7852 16.1595 47.4889 16.3281 47.0879 16.3281C46.9238 16.3281 46.7643 16.2871 46.6094 16.2051C46.2539 16.0228 46.0762 15.7311 46.0762 15.3301C46.0762 15.1569 46.1172 14.9928 46.1992 14.8379C46.3997 14.4824 46.696 14.3047 47.0879 14.3047C47.2611 14.3047 47.4251 14.3503 47.5801 14.4414C47.9355 14.6328 48.1133 14.929 48.1133 15.3301ZM51.8867 25.2422H52.584C52.6387 25.2422 52.6934 25.2467 52.748 25.2559C52.8665 25.2741 52.9258 25.388 52.9258 25.5977H49.3711V25.2422C49.4896 25.2422 49.599 25.2331 49.6992 25.2148C50 25.151 50.1504 24.9232 50.1504 24.5312V17.4766H49.3711V17.1211H51.791L51.8594 18.4336C51.9505 18.1784 52.0872 17.9414 52.2695 17.7227C52.7253 17.1849 53.3177 16.916 54.0469 16.916C54.5299 16.916 54.9583 17.0573 55.332 17.3398C56.0247 17.8594 56.3711 18.6979 56.3711 19.8555C56.3711 20.7487 56.1432 21.4961 55.6875 22.0977C55.1406 22.7904 54.416 23.1367 53.5137 23.1367C52.7845 23.1185 52.2422 22.9089 51.8867 22.5078V25.2422ZM53.3223 17.5723C53.0671 17.5723 52.8301 17.6771 52.6113 17.8867C52.1191 18.3698 51.873 19.181 51.873 20.3203C51.873 20.931 51.9551 21.446 52.1191 21.8652C52.3652 22.4668 52.7344 22.7676 53.2266 22.7676C54.0651 22.7585 54.4889 21.8561 54.498 20.0605C54.498 18.4199 54.1061 17.5905 53.3223 17.5723ZM60.2266 17.2715C59.4974 17.2988 59.1009 18.069 59.0371 19.582L59.9121 19.623C60.2767 19.6413 60.5501 19.6185 60.7324 19.5547C60.9876 19.4544 61.1152 19.1901 61.1152 18.7617C61.1061 17.7865 60.8099 17.2897 60.2266 17.2715ZM62.7832 21.5918C62.7285 21.7376 62.6556 21.8789 62.5645 22.0156C62.0996 22.763 61.334 23.1367 60.2676 23.1367C59.666 23.1367 59.1283 23.0137 58.6543 22.7676C57.6608 22.248 57.1641 21.3275 57.1641 20.0059C57.1641 19.1947 57.3828 18.5156 57.8203 17.9688C58.3945 17.2669 59.1966 16.916 60.2266 16.916C60.7917 16.916 61.2975 17.0117 61.7441 17.2031C62.5371 17.5586 62.9336 18.1237 62.9336 18.8984C62.9336 19.0534 62.9062 19.1947 62.8516 19.3223C62.6146 19.8327 61.7624 20.0651 60.2949 20.0195L59.0371 19.9785C59.0462 20.5072 59.0918 20.9629 59.1738 21.3457C59.3835 22.2754 59.8529 22.7402 60.582 22.7402C60.8099 22.7402 61.0332 22.6992 61.252 22.6172C61.7988 22.4167 62.1999 22.0384 62.4551 21.4824L62.7832 21.5918ZM72.9961 20.7168C72.9961 21.3184 72.7819 21.8288 72.3535 22.248C71.7337 22.8405 70.8451 23.1367 69.6875 23.1367C68.694 23.1367 67.8464 22.9043 67.1445 22.4395C67.1445 22.5944 67.1354 22.7174 67.1172 22.8086C67.0716 22.9544 66.9258 23.0273 66.6797 23.0273V20.1289H67.2129C67.2493 20.612 67.3496 21.0404 67.5137 21.4141C67.9056 22.2982 68.5846 22.7402 69.5508 22.7402C69.806 22.7402 70.0384 22.7038 70.248 22.6309C70.8314 22.4121 71.123 21.9746 71.123 21.3184C71.123 21.127 71.082 20.9401 71 20.7578C70.8086 20.375 70.321 19.9785 69.5371 19.5684C68.6621 19.1217 68.1699 18.862 68.0605 18.7891C67.1947 18.2513 66.7617 17.6042 66.7617 16.8477C66.7617 16.3372 66.9395 15.8952 67.2949 15.5215C67.8509 14.9473 68.6803 14.6602 69.7832 14.6602C70.6217 14.6602 71.4193 14.8379 72.1758 15.1934C72.1758 15.1113 72.1803 15.0384 72.1895 14.9746C72.235 14.8014 72.3854 14.7148 72.6406 14.7148V17.1895H72.1074C72.0983 16.6973 71.9798 16.2734 71.752 15.918C71.3783 15.3529 70.8177 15.0703 70.0703 15.0703C69.8789 15.0703 69.6966 15.0977 69.5234 15.1523C69.0039 15.3255 68.7441 15.681 68.7441 16.2188C68.7441 16.4284 68.7897 16.6289 68.8809 16.8203C69.0723 17.2122 69.5508 17.6087 70.3164 18.0098C71.1549 18.4564 71.6335 18.7116 71.752 18.7754C72.5814 19.3132 72.9961 19.9603 72.9961 20.7168ZM73.7617 17.5449V17.1895H74.7051V15.8906L76.4414 15.6035V17.1895H78.2461V17.5449H76.4414V21.6875C76.4414 21.806 76.4505 21.9199 76.4688 22.0293C76.5417 22.5033 76.7467 22.7402 77.084 22.7402C77.1387 22.7402 77.1934 22.7357 77.248 22.7266C77.6035 22.6536 77.8724 22.248 78.0547 21.5098L78.4238 21.5645C78.3509 21.9382 78.2507 22.2389 78.123 22.4668C77.8587 22.9225 77.3757 23.1504 76.6738 23.1504C76.5645 23.1504 76.4551 23.1458 76.3457 23.1367C75.252 23.0091 74.7051 22.2845 74.7051 20.9629V17.5449H73.7617ZM81.9648 17.2715C81.2357 17.2988 80.8392 18.069 80.7754 19.582L81.6504 19.623C82.015 19.6413 82.2884 19.6185 82.4707 19.5547C82.7259 19.4544 82.8535 19.1901 82.8535 18.7617C82.8444 17.7865 82.5482 17.2897 81.9648 17.2715ZM84.5215 21.5918C84.4668 21.7376 84.3939 21.8789 84.3027 22.0156C83.8379 22.763 83.0723 23.1367 82.0059 23.1367C81.4043 23.1367 80.8665 23.0137 80.3926 22.7676C79.3991 22.248 78.9023 21.3275 78.9023 20.0059C78.9023 19.1947 79.1211 18.5156 79.5586 17.9688C80.1328 17.2669 80.9349 16.916 81.9648 16.916C82.5299 16.916 83.0358 17.0117 83.4824 17.2031C84.2754 17.5586 84.6719 18.1237 84.6719 18.8984C84.6719 19.0534 84.6445 19.1947 84.5898 19.3223C84.3529 19.8327 83.5007 20.0651 82.0332 20.0195L80.7754 19.9785C80.7845 20.5072 80.8301 20.9629 80.9121 21.3457C81.1217 22.2754 81.5911 22.7402 82.3203 22.7402C82.5482 22.7402 82.7715 22.6992 82.9902 22.6172C83.5371 22.4167 83.9382 22.0384 84.1934 21.4824L84.5215 21.5918ZM87.7891 25.2422H88.4863C88.541 25.2422 88.5957 25.2467 88.6504 25.2559C88.7689 25.2741 88.8281 25.388 88.8281 25.5977H85.2734V25.2422C85.3919 25.2422 85.5013 25.2331 85.6016 25.2148C85.9023 25.151 86.0527 24.9232 86.0527 24.5312V17.4766H85.2734V17.1211H87.6934L87.7617 18.4336C87.8529 18.1784 87.9896 17.9414 88.1719 17.7227C88.6276 17.1849 89.2201 16.916 89.9492 16.916C90.4323 16.916 90.8607 17.0573 91.2344 17.3398C91.9271 17.8594 92.2734 18.6979 92.2734 19.8555C92.2734 20.7487 92.0456 21.4961 91.5898 22.0977C91.043 22.7904 90.3184 23.1367 89.416 23.1367C88.6868 23.1185 88.1445 22.9089 87.7891 22.5078V25.2422ZM89.2246 17.5723C88.9694 17.5723 88.7324 17.6771 88.5137 17.8867C88.0215 18.3698 87.7754 19.181 87.7754 20.3203C87.7754 20.931 87.8574 21.446 88.0215 21.8652C88.2676 22.4668 88.6367 22.7676 89.1289 22.7676C89.9674 22.7585 90.3913 21.8561 90.4004 20.0605C90.4004 18.4199 90.0085 17.5905 89.2246 17.5723Z" fill="#20211E"/>
<path d="M39.3926 29.8213V32.4053H37.1602V34.2686C38.0962 34.2686 38.9839 34.2334 40.0957 34.04L40.1309 34.5059C38.9971 34.708 38.105 34.7344 37.125 34.7432H36.6152V31.9482H38.8564V30.2959H36.5977V29.8213H39.3926ZM39.7881 32.2295V31.7725H40.834V29.1357H41.3613V36.2637H40.834V32.2295H39.7881ZM42.4072 36.6855V28.9336H42.9434V36.6855H42.4072ZM46.793 31.1221C46.7886 32.5283 47.8521 33.9565 48.9375 34.4619L48.5947 34.9014C47.7202 34.4619 46.8896 33.4995 46.5249 32.3569C46.1689 33.5566 45.3428 34.5806 44.4551 35.042L44.0947 34.5762C45.1846 34.0576 46.2393 32.5767 46.2393 31.1221V29.6279H46.793V31.1221ZM49.9307 36.6943V28.9336H50.4844V36.6943H49.9307ZM58.2715 28.9336V36.6855H57.7266V28.9336H58.2715ZM51.8906 34.2246C52.2466 34.2246 52.6289 34.2246 53.0332 34.2202V30.2783H52.0928V29.8125H56.5312V30.2783H55.5908V34.1279C56.061 34.0972 56.5269 34.0576 56.9707 34.0049L57.0059 34.4268C55.3008 34.686 53.4023 34.708 51.9609 34.7168L51.8906 34.2246ZM53.5693 34.2114C54.0483 34.1982 54.5493 34.1851 55.0459 34.1587V30.2783H53.5693V34.2114ZM65.6631 29.5576C65.6631 30.6299 67.2407 31.5396 68.4668 31.7373L68.2471 32.1768C67.1265 31.9746 65.8608 31.311 65.3862 30.3618C64.9116 31.3242 63.646 31.9834 62.5254 32.1855L62.2969 31.7461C63.5405 31.5439 65.0962 30.6606 65.1006 29.5576V29.127H65.6631V29.5576ZM61.8398 33.3896V32.9238H68.9326V33.3896H65.6982V35.0596H65.1533V33.3896H61.8398ZM62.7715 36.501V34.2686H63.3252V36.0352H68.1416V36.501H62.7715ZM72.2812 31.1221C72.2856 32.502 73.2876 33.9126 74.3643 34.418L74.0303 34.875C73.1514 34.418 72.356 33.4424 72.0132 32.3086C71.6748 33.4995 70.8838 34.541 70.0137 35.0156L69.6533 34.5762C70.73 34.0269 71.7231 32.5371 71.7275 31.1221V29.6279H72.2812V31.1221ZM73.5205 32.1064V31.6406H75.4717V28.9336H76.0166V36.6943H75.4717V32.1064H73.5205Z" fill="#20211E"/>
</svg>
