<svg width="12" height="12" viewBox="0 0 12 12" fill="none" xmlns="http://www.w3.org/2000/svg">
<path fill-rule="evenodd" clip-rule="evenodd" d="M2.294 10.7065C2.48967 10.9022 2.725 11 3 11H9C9.27533 11.0003 9.51083 10.9025 9.7065 10.7065C9.90217 10.5105 10 10.275 10 10V5C10.0003 4.72533 9.9025 4.49 9.7065 4.294C9.5105 4.098 9.275 4 9 4H8.5H7.5H4.5V3C4.5 2.58333 4.64583 2.22917 4.9375 1.9375C5.22917 1.64583 5.58333 1.5 6 1.5C6.41667 1.5 6.77083 1.64583 7.0625 1.9375C7.28277 2.15777 7.41986 2.41368 7.47378 2.70524L8.45604 2.50879C8.36584 2.02509 8.13683 1.59933 7.769 1.2315C7.28133 0.743833 6.69167 0.5 6 0.5C5.30867 0.500333 4.71917 0.744167 4.2315 1.2315C3.74383 1.71883 3.5 2.30833 3.5 3V4H3C2.72533 4.00033 2.49 4.09833 2.294 4.294C2.098 4.48967 2 4.725 2 5V10C2.00033 10.2753 2.09833 10.5108 2.294 10.7065ZM7 7.5C7.00033 7.77533 6.9025 8.01083 6.7065 8.2065C6.5105 8.40217 6.275 8.5 6 8.5C5.72533 8.50033 5.49 8.4025 5.294 8.2065C5.098 8.0105 5 7.775 5 7.5C5.00033 7.22533 5.09833 6.99 5.294 6.794C5.48967 6.598 5.725 6.5 6 6.5C6.27533 6.50033 6.51083 6.59833 6.7065 6.794C6.90217 6.98967 7 7.225 7 7.5Z" fill="#BEC0BB"/>
</svg>
